{
  "source": "C:\\Users\\Peter\\Desktop\\stuff\\MIUN\\quantitative_research\\video_compression\\videos\\HEVC_CLASS_B\\BQTerrace_1920x1080_60.y4m",
  "output": "C:\\Users\\Peter\\Desktop\\stuff\\MIUN\\quantitative_research\\video_compression\\compressed_videos\\HEVC_CLASS_B\\hevc\\2.5\\BQTerrace_1920x1080_60_hevc.mp4",
  "codec": "hevc",
  "ok": "Input #0, yuv4mpegpipe, from 'C:\\Users\\Peter\\Desktop\\stuff\\MIUN\\quantitative_research\\video_compression\\videos\\HEVC_CLASS_B\\BQTerrace_1920x1080_60.y4m':\n  Duration: 00:00:10.00, start: 0.000000, bitrate: 1492994 kb/s\n  Stream #0:0: Video: rawvideo (I420 / 0x30323449), yuv420p(progressive), 1920x1080, 60 fps, 60 tbr, 60 tbn\n[out#0/mp4 @ 000002e2853fb680] Codec AVOption b:a (set bitrate (in bits/s)) has not been used for any stream. The most likely reason is either wrong type (e.g. a video option with no video streams) or that it is a private option of some decoder which was not actually used for any stream.\nStream mapping:\n  Stream #0:0 -> #0:0 (rawvideo (native) -> hevc (libx265))\nPress [q] to stop, [?] for help\n[libx265 @ 000002e2853fcac0] Unknown option: \"aq-mode.\nx265 [info]: HEVC encoder version 4.1+190-8f11c33ac\nx265 [info]: build info [Windows][GCC 15.1.0][64 bit] 10bit\nx265 [info]: using cpu capabilities: MMX2 SSE2Fast LZCNT SSSE3 SSE4.2 AVX FMA3 BMI2 AVX2\nx265 [info]: Main 10 profile, Level-4.1 (Main tier)\nx265 [info]: Thread pool created using 12 threads\nx265 [info]: Slices                              : 1\nx265 [info]: frame threads / pool features       : 3 / wpp(17 rows)\nx265 [info]: Coding QT: max CU size, min CU size : 64 / 8\nx265 [info]: Residual QT: max TU size, max depth : 32 / 1 inter / 1 intra\nx265 [info]: ME / range / subpel / merge         : star / 57 / 3 / 3\nx265 [info]: Keyframe min / max / scenecut / bias  : 25 / 250 / 40 / 5.00 \nx265 [info]: Lookahead / bframes / badapt        : 25 / 4 / 2\nx265 [info]: b-pyramid / weightp / weightb       : 1 / 1 / 0\nx265 [info]: References / ref-limit  cu / depth  : 4 / on / on\nx265 [info]: AQ: mode / str / qg-size / cu-tree  : 2 / 1.0 / 32 / 1\nx265 [info]: Rate Control / qCompress            : ABR-2500 kbps / 0.60\nx265 [info]: VBV/HRD buffer / max-rate / init    : 2500 / 2500 / 0.750\nx265 [info]: tools: rect limit-modes rd=4 psy-rd=2.00 rdoq=2 psy-rdoq=1.00\nx265 [info]: tools: rskip mode=1 signhide tmvp strong-intra-smoothing lslices=4\nx265 [info]: tools: deblock sao dhdr10-info\nOutput #0, mp4, to 'C:\\Users\\Peter\\Desktop\\stuff\\MIUN\\quantitative_research\\video_compression\\compressed_videos\\HEVC_CLASS_B\\hevc\\2.5\\BQTerrace_1920x1080_60_hevc.mp4':\n  Metadata:\n    encoder         : Lavf62.3.100\n  Stream #0:0: Video: hevc (hev1 / 0x31766568), yuv420p10le(tv, progressive), 1920x1080, q=2-31, 2500 kb/s, 60 fps, 15360 tbn\n    Metadata:\n      encoder         : Lavc62.11.100 libx265\n    Side data:\n      cpb: bitrate max/min/avg: 2500000/0/2500000 buffer size: 2500000 vbv_delay: N/A\nframe=    0 fps=0.0 q=0.0 size=       0KiB time=N/A bitrate=N/A speed=N/A elapsed=0:00:00.53    \nframe=    0 fps=0.0 q=0.0 size=       0KiB time=N/A bitrate=N/A speed=N/A elapsed=0:00:01.14    \nframe=    0 fps=0.0 q=0.0 size=       0KiB time=N/A bitrate=N/A speed=N/A elapsed=0:00:01.73    \nframe=    0 fps=0.0 q=0.0 size=       0KiB time=N/A bitrate=N/A speed=N/A elapsed=0:00:02.25    \nframe=    0 fps=0.0 q=0.0 size=       0KiB time=N/A bitrate=N/A speed=N/A elapsed=0:00:02.79    \nframe=    0 fps=0.0 q=0.0 size=       0KiB time=N/A bitrate=N/A speed=N/A elapsed=0:00:03.37    \nframe=    0 fps=0.0 q=0.0 size=       0KiB time=N/A bitrate=N/A speed=N/A elapsed=0:00:03.92    \nframe=    0 fps=0.0 q=0.0 size=       0KiB time=N/A bitrate=N/A speed=N/A elapsed=0:00:04.45    \nframe=    0 fps=0.0 q=0.0 size=       0KiB time=N/A bitrate=N/A speed=N/A elapsed=0:00:04.97    \nframe=    0 fps=0.0 q=0.0 size=       0KiB time=N/A bitrate=N/A speed=N/A elapsed=0:00:05.49    \nframe=    0 fps=0.0 q=0.0 size=       0KiB time=N/A bitrate=N/A speed=N/A elapsed=0:00:06.01    \nframe=    1 fps=0.2 q=43.2 size=       0KiB time=-00:00:00.01 bitrate=N/A speed=N/A elapsed=0:00:06.55    \nframe=    1 fps=0.1 q=43.2 size=       0KiB time=-00:00:00.01 bitrate=N/A speed=N/A elapsed=0:00:07.09    \nframe=    3 fps=0.4 q=51.0 size=       0KiB time=00:00:00.01 bitrate=  21.1kbits/s speed=0.00219x elapsed=0:00:07.61    \nframe=    3 fps=0.4 q=51.0 size=       0KiB time=00:00:00.01 bitrate=  21.1kbits/s speed=0.00204x elapsed=0:00:08.18    \nframe=    3 fps=0.3 q=51.0 size=       0KiB time=00:00:00.01 bitrate=  21.1kbits/s speed=0.0019x elapsed=0:00:08.75    \nframe=    4 fps=0.4 q=51.0 size=       0KiB time=00:00:00.03 bitrate=  10.6kbits/s speed=0.00359x elapsed=0:00:09.27    \nframe=    4 fps=0.4 q=51.0 size=       0KiB time=00:00:00.03 bitrate=  10.6kbits/s speed=0.00339x elapsed=0:00:09.83    \nframe=    4 fps=0.4 q=51.0 size=       0KiB time=00:00:00.03 bitrate=  10.6kbits/s speed=0.00322x elapsed=0:00:10.34    \nframe=    5 fps=0.5 q=42.7 size=       0KiB time=00:00:00.05 bitrate=   7.0kbits/s speed=0.0046x elapsed=0:00:10.86    \nframe=    5 fps=0.4 q=42.7 size=       0KiB time=00:00:00.05 bitrate=   7.0kbits/s speed=0.00439x elapsed=0:00:11.39    \nframe=    5 fps=0.4 q=42.7 size=       0KiB time=00:00:00.05 bitrate=   7.0kbits/s speed=0.00419x elapsed=0:00:11.91    \nframe=    5 fps=0.4 q=42.7 size=       0KiB time=00:00:00.05 bitrate=   7.0kbits/s speed=0.00401x elapsed=0:00:12.46    \nframe=    5 fps=0.4 q=42.7 size=       0KiB time=00:00:00.05 bitrate=   7.0kbits/s speed=0.00383x elapsed=0:00:13.05    \nframe=    5 fps=0.4 q=42.7 size=       0KiB time=00:00:00.05 bitrate=   7.0kbits/s speed=0.00368x elapsed=0:00:13.58    \nframe=    5 fps=0.4 q=42.7 size=       0KiB time=00:00:00.05 bitrate=   7.0kbits/s speed=0.00353x elapsed=0:00:14.15    \nframe=    5 fps=0.3 q=42.7 size=       0KiB time=00:00:00.05 bitrate=   7.0kbits/s speed=0.00341x elapsed=0:00:14.67    \nframe=    5 fps=0.3 q=42.7 size=       0KiB time=00:00:00.05 bitrate=   7.0kbits/s speed=0.00329x elapsed=0:00:15.21    \nframe=    5 fps=0.3 q=42.7 size=       0KiB time=00:00:00.05 bitrate=   7.0kbits/s speed=0.00317x elapsed=0:00:15.77    \nframe=    5 fps=0.3 q=42.7 size=       0KiB time=00:00:00.05 bitrate=   7.0kbits/s speed=0.00307x elapsed=0:00:16.29    \nframe=    7 fps=0.4 q=45.0 size=       0KiB time=00:00:00.08 bitrate=   4.2kbits/s speed=0.00495x elapsed=0:00:16.82    \nframe=    8 fps=0.5 q=39.5 size=       0KiB time=00:00:00.10 bitrate=   3.5kbits/s speed=0.00576x elapsed=0:00:17.36    \nframe=    9 fps=0.5 q=45.0 size=       0KiB time=00:00:00.11 bitrate=   3.0kbits/s speed=0.00649x elapsed=0:00:17.96    \nframe=   10 fps=0.5 q=44.0 size=       0KiB time=00:00:00.13 bitrate=   2.6kbits/s speed=0.00719x elapsed=0:00:18.53    \nframe=   10 fps=0.5 q=44.0 size=       0KiB time=00:00:00.13 bitrate=   2.6kbits/s speed=0.00697x elapsed=0:00:19.13    \nframe=   10 fps=0.5 q=44.0 size=       0KiB time=00:00:00.13 bitrate=   2.6kbits/s speed=0.00677x elapsed=0:00:19.68    \nframe=   11 fps=0.5 q=47.0 size=       0KiB time=00:00:00.15 bitrate=   2.3kbits/s speed=0.00741x elapsed=0:00:20.23    \nframe=   11 fps=0.5 q=47.0 size=       0KiB time=00:00:00.15 bitrate=   2.3kbits/s speed=0.0072x elapsed=0:00:20.81    \nframe=   11 fps=0.5 q=47.0 size=       0KiB time=00:00:00.15 bitrate=   2.3kbits/s speed=0.00703x elapsed=0:00:21.35    \nframe=   11 fps=0.5 q=47.0 size=       0KiB time=00:00:00.15 bitrate=   2.3kbits/s speed=0.00685x elapsed=0:00:21.89    \nframe=   11 fps=0.5 q=47.0 size=       0KiB time=00:00:00.15 bitrate=   2.3kbits/s speed=0.00666x elapsed=0:00:22.53    \nframe=   11 fps=0.5 q=47.0 size=       0KiB time=00:00:00.15 bitrate=   2.3kbits/s speed=0.0065x elapsed=0:00:23.08    \nframe=   12 fps=0.5 q=47.0 size=       0KiB time=00:00:00.16 bitrate=   2.1kbits/s speed=0.00704x elapsed=0:00:23.66    \nframe=   13 fps=0.5 q=39.6 size=       0KiB time=00:00:00.18 bitrate=   1.9kbits/s speed=0.00757x elapsed=0:00:24.22    \nframe=   13 fps=0.5 q=39.6 size=       0KiB time=00:00:00.18 bitrate=   1.9kbits/s speed=0.0074x elapsed=0:00:24.77    \nframe=   14 fps=0.6 q=45.0 size=       0KiB time=00:00:00.18 bitrate=   1.9kbits/s speed=0.00724x elapsed=0:00:25.31    \nframe=   15 fps=0.6 q=46.0 size=       0KiB time=00:00:00.21 bitrate=   1.6kbits/s speed=0.00837x elapsed=0:00:25.89    \nframe=   15 fps=0.6 q=46.0 size=       0KiB time=00:00:00.21 bitrate=   1.6kbits/s speed=0.0082x elapsed=0:00:26.43    \nframe=   16 fps=0.6 q=38.7 size=       0KiB time=00:00:00.23 bitrate=   1.5kbits/s speed=0.00865x elapsed=0:00:26.98    \nframe=   17 fps=0.6 q=43.7 size=       0KiB time=00:00:00.25 bitrate=   1.4kbits/s speed=0.00909x elapsed=0:00:27.51    \nframe=   17 fps=0.6 q=43.7 size=       0KiB time=00:00:00.25 bitrate=   1.4kbits/s speed=0.00891x elapsed=0:00:28.04    \nframe=   17 fps=0.6 q=43.7 size=       0KiB time=00:00:00.25 bitrate=   1.4kbits/s speed=0.00873x elapsed=0:00:28.62    \nframe=   18 fps=0.6 q=44.9 size=       0KiB time=00:00:00.26 bitrate=   1.3kbits/s speed=0.00914x elapsed=0:00:29.17    \nframe=   19 fps=0.6 q=43.9 size=       0KiB time=00:00:00.28 bitrate=   1.2kbits/s speed=0.00952x elapsed=0:00:29.75    \nframe=   19 fps=0.6 q=43.9 size=       0KiB time=00:00:00.28 bitrate=   1.2kbits/s speed=0.00934x elapsed=0:00:30.34    \nframe=   19 fps=0.6 q=43.9 size=       0KiB time=00:00:00.28 bitrate=   1.2kbits/s speed=0.00917x elapsed=0:00:30.88    \nframe=   19 fps=0.6 q=43.9 size=       0KiB time=00:00:00.28 bitrate=   1.2kbits/s speed=0.00901x elapsed=0:00:31.46    \nframe=   19 fps=0.6 q=43.9 size=       0KiB time=00:00:00.28 bitrate=   1.2kbits/s speed=0.00885x elapsed=0:00:32.02    \nframe=   19 fps=0.6 q=43.9 size=       0KiB time=00:00:00.28 bitrate=   1.2kbits/s speed=0.0087x elapsed=0:00:32.56    \nframe=   20 fps=0.6 q=37.5 size=       0KiB time=00:00:00.30 bitrate=   1.2kbits/s speed=0.00906x elapsed=0:00:33.11    \nframe=   20 fps=0.6 q=37.5 size=       0KiB time=00:00:00.30 bitrate=   1.2kbits/s speed=0.0089x elapsed=0:00:33.69    \nframe=   21 fps=0.6 q=42.9 size=       0KiB time=00:00:00.31 bitrate=   1.1kbits/s speed=0.00925x elapsed=0:00:34.24    \nframe=   21 fps=0.6 q=42.9 size=       0KiB time=00:00:00.31 bitrate=   1.1kbits/s speed=0.00911x elapsed=0:00:34.76    \nframe=   22 fps=0.6 q=43.0 size=       0KiB time=00:00:00.31 bitrate=   1.1kbits/s speed=0.00897x elapsed=0:00:35.28    \nframe=   23 fps=0.6 q=44.0 size=       0KiB time=00:00:00.35 bitrate=   1.0kbits/s speed=0.00975x elapsed=0:00:35.90    \nframe=   25 fps=0.7 q=42.6 size=       0KiB time=00:00:00.36 bitrate=   1.0kbits/s speed=0.0101x elapsed=0:00:36.45    \nframe=   25 fps=0.7 q=42.6 size=       0KiB time=00:00:00.38 bitrate=   0.9kbits/s speed=0.0103x elapsed=0:00:37.05    \nframe=   25 fps=0.7 q=42.6 size=       0KiB time=00:00:00.38 bitrate=   0.9kbits/s speed=0.0102x elapsed=0:00:37.62    \nframe=   25 fps=0.7 q=42.6 size=       0KiB time=00:00:00.38 bitrate=   0.9kbits/s speed=0.01x elapsed=0:00:38.19    \nframe=   26 fps=0.7 q=43.0 size=       0KiB time=00:00:00.40 bitrate=   0.9kbits/s speed=0.0103x elapsed=0:00:38.77    \nframe=   27 fps=0.7 q=43.0 size=       0KiB time=00:00:00.41 bitrate=   0.8kbits/s speed=0.0106x elapsed=0:00:39.33    \nframe=   27 fps=0.7 q=43.0 size=       0KiB time=00:00:00.41 bitrate=   0.8kbits/s speed=0.0104x elapsed=0:00:39.91    \nframe=   27 fps=0.7 q=43.0 size=       0KiB time=00:00:00.41 bitrate=   0.8kbits/s speed=0.0103x elapsed=0:00:40.43    \nframe=   27 fps=0.7 q=43.0 size=       0KiB time=00:00:00.41 bitrate=   0.8kbits/s speed=0.0102x elapsed=0:00:40.97    \nframe=   27 fps=0.7 q=43.0 size=       0KiB time=00:00:00.41 bitrate=   0.8kbits/s speed=0.01x elapsed=0:00:41.50    \nframe=   28 fps=0.7 q=36.2 size=       0KiB time=00:00:00.43 bitrate=   0.8kbits/s speed=0.0103x elapsed=0:00:42.07    \nframe=   28 fps=0.7 q=36.2 size=       0KiB time=00:00:00.43 bitrate=   0.8kbits/s speed=0.0102x elapsed=0:00:42.66    \nframe=   28 fps=0.6 q=36.2 size=       0KiB time=00:00:00.43 bitrate=   0.8kbits/s speed=0.01x elapsed=0:00:43.23    \nframe=   29 fps=0.7 q=41.9 size=       0KiB time=00:00:00.45 bitrate=   0.8kbits/s speed=0.0103x elapsed=0:00:43.79    \nframe=   29 fps=0.7 q=41.9 size=       0KiB time=00:00:00.45 bitrate=   0.8kbits/s speed=0.0101x elapsed=0:00:44.40    \nframe=   30 fps=0.7 q=42.9 size=       0KiB time=00:00:00.46 bitrate=   0.8kbits/s speed=0.0104x elapsed=0:00:44.93    \nframe=   30 fps=0.7 q=42.9 size=       0KiB time=00:00:00.46 bitrate=   0.8kbits/s speed=0.0103x elapsed=0:00:45.52    \nframe=   30 fps=0.7 q=42.9 size=       0KiB time=00:00:00.46 bitrate=   0.8kbits/s speed=0.0101x elapsed=0:00:46.03    \nframe=   31 fps=0.7 q=36.3 size=       0KiB time=00:00:00.48 bitrate=   0.7kbits/s speed=0.0104x elapsed=0:00:46.58    \nframe=   32 fps=0.7 q=41.8 size=       0KiB time=00:00:00.50 bitrate=   0.7kbits/s speed=0.0106x elapsed=0:00:47.26    \nframe=   32 fps=0.7 q=41.8 size=       0KiB time=00:00:00.50 bitrate=   0.7kbits/s speed=0.0104x elapsed=0:00:47.86    \nframe=   32 fps=0.7 q=41.8 size=       0KiB time=00:00:00.50 bitrate=   0.7kbits/s speed=0.0103x elapsed=0:00:48.41    \nframe=   32 fps=0.7 q=41.8 size=       0KiB time=00:00:00.50 bitrate=   0.7kbits/s speed=0.0102x elapsed=0:00:48.96    \nframe=   32 fps=0.6 q=41.8 size=       0KiB time=00:00:00.50 bitrate=   0.7kbits/s speed=0.0101x elapsed=0:00:49.53    \nframe=   32 fps=0.6 q=41.8 size=       0KiB time=00:00:00.50 bitrate=   0.7kbits/s speed=0.00998x elapsed=0:00:50.11    \nframe=   33 fps=0.7 q=42.0 size=       0KiB time=00:00:00.51 bitrate=   0.7kbits/s speed=0.0102x elapsed=0:00:50.66    \nframe=   33 fps=0.6 q=42.0 size=       0KiB time=00:00:00.51 bitrate=   0.7kbits/s speed=0.0101x elapsed=0:00:51.22    \nframe=   33 fps=0.6 q=42.0 size=       0KiB time=00:00:00.51 bitrate=   0.7kbits/s speed=0.00998x elapsed=0:00:51.78    \nframe=   33 fps=0.6 q=42.0 size=       0KiB time=00:00:00.51 bitrate=   0.7kbits/s speed=0.00988x elapsed=0:00:52.31    \nframe=   34 fps=0.6 q=42.0 size=       0KiB time=00:00:00.53 bitrate=   0.7kbits/s speed=0.0101x elapsed=0:00:52.84    \nframe=   34 fps=0.6 q=42.0 size=       0KiB time=00:00:00.53 bitrate=   0.7kbits/s speed=0.00998x elapsed=0:00:53.41    \nframe=   35 fps=0.6 q=35.6 size=       0KiB time=00:00:00.55 bitrate=   0.6kbits/s speed=0.0102x elapsed=0:00:53.99    \nframe=   35 fps=0.6 q=35.6 size=       0KiB time=00:00:00.55 bitrate=   0.6kbits/s speed=0.0101x elapsed=0:00:54.54    \nframe=   35 fps=0.6 q=35.6 size=       0KiB time=00:00:00.55 bitrate=   0.6kbits/s speed=0.00997x elapsed=0:00:55.16    \nframe=   36 fps=0.6 q=40.4 size=       0KiB time=00:00:00.56 bitrate=   0.6kbits/s speed=0.0102x elapsed=0:00:55.68    \nframe=   37 fps=0.7 q=40.8 size=       0KiB time=00:00:00.58 bitrate=   0.6kbits/s speed=0.0104x elapsed=0:00:56.20    \nframe=   38 fps=0.7 q=40.8 size=       0KiB time=00:00:00.60 bitrate=   0.6kbits/s speed=0.0106x elapsed=0:00:56.79    \nframe=   38 fps=0.7 q=40.8 size=       0KiB time=00:00:00.60 bitrate=   0.6kbits/s speed=0.0105x elapsed=0:00:57.31    \nframe=   39 fps=0.7 q=41.0 size=       0KiB time=00:00:00.61 bitrate=   0.6kbits/s speed=0.0107x elapsed=0:00:57.83    \nframe=   40 fps=0.7 q=34.9 size=       0KiB time=00:00:00.63 bitrate=   0.6kbits/s speed=0.0109x elapsed=0:00:58.36    \nframe=   40 fps=0.7 q=34.9 size=       0KiB time=00:00:00.63 bitrate=   0.6kbits/s speed=0.0107x elapsed=0:00:58.92    \nframe=   40 fps=0.7 q=34.9 size=       0KiB time=00:00:00.63 bitrate=   0.6kbits/s speed=0.0107x elapsed=0:00:59.43    \nframe=   40 fps=0.7 q=34.9 size=       0KiB time=00:00:00.63 bitrate=   0.6kbits/s speed=0.0105x elapsed=0:01:00.07    \nframe=   41 fps=0.7 q=36.1 size=       0KiB time=00:00:00.65 bitrate=   0.5kbits/s speed=0.0107x elapsed=0:01:00.71    \nframe=   41 fps=0.7 q=36.1 size=       0KiB time=00:00:00.65 bitrate=   0.5kbits/s speed=0.0106x elapsed=0:01:01.30    \nframe=   42 fps=0.7 q=41.1 size=       0KiB time=00:00:00.66 bitrate=   0.5kbits/s speed=0.0108x elapsed=0:01:01.91    \nframe=   42 fps=0.7 q=41.1 size=       0KiB time=00:00:00.66 bitrate=   0.5kbits/s speed=0.0107x elapsed=0:01:02.50    \nframe=   42 fps=0.7 q=41.1 size=       0KiB time=00:00:00.66 bitrate=   0.5kbits/s speed=0.0106x elapsed=0:01:03.10    \nframe=   43 fps=0.7 q=41.0 size=       0KiB time=00:00:00.66 bitrate=   0.5kbits/s speed=0.0105x elapsed=0:01:03.60    \nframe=   43 fps=0.7 q=41.0 size=       0KiB time=00:00:00.68 bitrate=   0.5kbits/s speed=0.0106x elapsed=0:01:04.20    \nframe=   43 fps=0.7 q=41.0 size=       0KiB time=00:00:00.68 bitrate=   0.5kbits/s speed=0.0105x elapsed=0:01:04.78    \nframe=   43 fps=0.7 q=41.0 size=       0KiB time=00:00:00.68 bitrate=   0.5kbits/s speed=0.0105x elapsed=0:01:05.33    \nframe=   43 fps=0.7 q=41.0 size=       0KiB time=00:00:00.68 bitrate=   0.5kbits/s speed=0.0104x elapsed=0:01:05.89    \nframe=   43 fps=0.6 q=41.0 size=       0KiB time=00:00:00.68 bitrate=   0.5kbits/s speed=0.0103x elapsed=0:01:06.46    \nframe=   43 fps=0.6 q=41.0 size=       0KiB time=00:00:00.68 bitrate=   0.5kbits/s speed=0.0102x elapsed=0:01:07.02    \nframe=   43 fps=0.6 q=41.0 size=       0KiB time=00:00:00.68 bitrate=   0.5kbits/s speed=0.0101x elapsed=0:01:07.58    \nframe=   43 fps=0.6 q=41.0 size=       0KiB time=00:00:00.68 bitrate=   0.5kbits/s speed=0.01x elapsed=0:01:08.19    \nframe=   43 fps=0.6 q=41.0 size=       0KiB time=00:00:00.68 bitrate=   0.5kbits/s speed=0.00994x elapsed=0:01:08.76    \nframe=   44 fps=0.6 q=42.0 size=       0KiB time=00:00:00.70 bitrate=   0.5kbits/s speed=0.0101x elapsed=0:01:09.31    \nframe=   44 fps=0.6 q=42.0 size=       0KiB time=00:00:00.70 bitrate=   0.5kbits/s speed=0.01x elapsed=0:01:09.89    \nframe=   44 fps=0.6 q=42.0 size=       0KiB time=00:00:00.70 bitrate=   0.5kbits/s speed=0.00994x elapsed=0:01:10.45    \nframe=   45 fps=0.6 q=35.9 size=       0KiB time=00:00:00.71 bitrate=   0.5kbits/s speed=0.0101x elapsed=0:01:11.03    \nframe=   45 fps=0.6 q=35.9 size=       0KiB time=00:00:00.71 bitrate=   0.5kbits/s speed=0.01x elapsed=0:01:11.60    \nframe=   45 fps=0.6 q=35.9 size=       0KiB time=00:00:00.71 bitrate=   0.5kbits/s speed=0.00993x elapsed=0:01:12.18    \nframe=   46 fps=0.6 q=37.3 size=       0KiB time=00:00:00.73 bitrate=   0.5kbits/s speed=0.0101x elapsed=0:01:12.71    \nframe=   47 fps=0.6 q=42.0 size=       0KiB time=00:00:00.75 bitrate=   0.5kbits/s speed=0.0102x elapsed=0:01:13.22    \nframe=   47 fps=0.6 q=42.0 size=       0KiB time=00:00:00.75 bitrate=   0.5kbits/s speed=0.0102x elapsed=0:01:13.75    \nframe=   48 fps=0.6 q=42.0 size=       0KiB time=00:00:00.76 bitrate=   0.5kbits/s speed=0.0103x elapsed=0:01:14.27    \nframe=   48 fps=0.6 q=42.0 size=       0KiB time=00:00:00.76 bitrate=   0.5kbits/s speed=0.0103x elapsed=0:01:14.79    \nframe=   49 fps=0.7 q=41.1 size=       0KiB time=00:00:00.78 bitrate=   0.4kbits/s speed=0.0104x elapsed=0:01:15.32    \nframe=   50 fps=0.7 q=34.9 size=       0KiB time=00:00:00.80 bitrate=   0.4kbits/s speed=0.0105x elapsed=0:01:15.83    \nframe=   51 fps=0.7 q=38.8 size=       0KiB time=00:00:00.81 bitrate=   0.4kbits/s speed=0.0107x elapsed=0:01:16.37    \nframe=   51 fps=0.7 q=38.8 size=       0KiB time=00:00:00.81 bitrate=   0.4kbits/s speed=0.0106x elapsed=0:01:16.89    \nframe=   52 fps=0.7 q=41.1 size=       0KiB time=00:00:00.83 bitrate=   0.4kbits/s speed=0.0108x elapsed=0:01:17.41    \nframe=   53 fps=0.7 q=41.0 size=       0KiB time=00:00:00.85 bitrate=   0.4kbits/s speed=0.0109x elapsed=0:01:17.94    \nframe=   53 fps=0.7 q=41.0 size=       0KiB time=00:00:00.85 bitrate=   0.4kbits/s speed=0.0108x elapsed=0:01:18.45    \nframe=   53 fps=0.7 q=41.0 size=       0KiB time=00:00:00.85 bitrate=   0.4kbits/s speed=0.0108x elapsed=0:01:18.96    \nframe=   54 fps=0.7 q=41.0 size=       0KiB time=00:00:00.86 bitrate=   0.4kbits/s speed=0.0109x elapsed=0:01:19.49    \nframe=   55 fps=0.7 q=34.8 size=       0KiB time=00:00:00.88 bitrate=   0.4kbits/s speed=0.011x elapsed=0:01:19.99    \nframe=   56 fps=0.7 q=40.9 size=       0KiB time=00:00:00.90 bitrate=   0.4kbits/s speed=0.0112x elapsed=0:01:20.54    \nframe=   57 fps=0.7 q=41.1 size=     256KiB time=00:00:00.91 bitrate=2288.2kbits/s speed=0.0113x elapsed=0:01:21.05    \nframe=   58 fps=0.7 q=40.9 size=     256KiB time=00:00:00.93 bitrate=2247.3kbits/s speed=0.0114x elapsed=0:01:21.58    \nframe=   58 fps=0.7 q=40.9 size=     256KiB time=00:00:00.93 bitrate=2247.3kbits/s speed=0.0114x elapsed=0:01:22.10    \nframe=   58 fps=0.7 q=40.9 size=     256KiB time=00:00:00.93 bitrate=2247.3kbits/s speed=0.0113x elapsed=0:01:22.62    \nframe=   59 fps=0.7 q=40.0 size=     256KiB time=00:00:00.95 bitrate=2207.9kbits/s speed=0.0114x elapsed=0:01:23.14    \nframe=   59 fps=0.7 q=40.0 size=     256KiB time=00:00:00.95 bitrate=2207.9kbits/s speed=0.0114x elapsed=0:01:23.66    \nframe=   60 fps=0.7 q=34.4 size=     256KiB time=00:00:00.96 bitrate=2169.8kbits/s speed=0.0115x elapsed=0:01:24.17    \nframe=   61 fps=0.7 q=39.6 size=     256KiB time=00:00:00.98 bitrate=2133.1kbits/s speed=0.0116x elapsed=0:01:24.71    \nframe=   62 fps=0.7 q=40.1 size=     256KiB time=00:00:01.00 bitrate=2097.5kbits/s speed=0.0117x elapsed=0:01:25.23    \nframe=   63 fps=0.7 q=41.1 size=     256KiB time=00:00:01.01 bitrate=2063.1kbits/s speed=0.0119x elapsed=0:01:25.77    \nframe=   64 fps=0.7 q=33.6 size=     256KiB time=00:00:01.03 bitrate=2029.8kbits/s speed=0.012x elapsed=0:01:26.29    \nframe=   64 fps=0.7 q=33.6 size=     256KiB time=00:00:01.03 bitrate=2029.8kbits/s speed=0.0119x elapsed=0:01:26.81    \nframe=   65 fps=0.7 q=39.3 size=     256KiB time=00:00:01.05 bitrate=1997.6kbits/s speed=0.012x elapsed=0:01:27.33    \nframe=   65 fps=0.7 q=39.3 size=     256KiB time=00:00:01.05 bitrate=1997.6kbits/s speed=0.012x elapsed=0:01:27.84    \nframe=   66 fps=0.7 q=40.1 size=     256KiB time=00:00:01.06 bitrate=1966.4kbits/s speed=0.0121x elapsed=0:01:28.40    \nframe=   66 fps=0.7 q=40.1 size=     256KiB time=00:00:01.06 bitrate=1966.4kbits/s speed=0.012x elapsed=0:01:28.92    \nframe=   66 fps=0.7 q=40.1 size=     256KiB time=00:00:01.06 bitrate=1966.4kbits/s speed=0.0119x elapsed=0:01:29.44    \nframe=   66 fps=0.7 q=40.1 size=     256KiB time=00:00:01.06 bitrate=1966.4kbits/s speed=0.0119x elapsed=0:01:29.98    \nframe=   67 fps=0.7 q=40.1 size=     256KiB time=00:00:01.08 bitrate=1936.2kbits/s speed=0.012x elapsed=0:01:30.52    \nframe=   68 fps=0.7 q=40.0 size=     256KiB time=00:00:01.10 bitrate=1906.8kbits/s speed=0.0121x elapsed=0:01:31.04    \nframe=   69 fps=0.8 q=33.5 size=     256KiB time=00:00:01.11 bitrate=1878.4kbits/s speed=0.0122x elapsed=0:01:31.58    \nframe=   70 fps=0.8 q=37.8 size=     256KiB time=00:00:01.13 bitrate=1850.7kbits/s speed=0.0123x elapsed=0:01:32.09    \nframe=   71 fps=0.8 q=40.0 size=     256KiB time=00:00:01.15 bitrate=1823.9kbits/s speed=0.0124x elapsed=0:01:32.61    \nframe=   71 fps=0.8 q=40.0 size=     256KiB time=00:00:01.15 bitrate=1823.9kbits/s speed=0.0123x elapsed=0:01:33.13    \nframe=   72 fps=0.8 q=40.1 size=     256KiB time=00:00:01.16 bitrate=1797.9kbits/s speed=0.0125x elapsed=0:01:33.66    \nframe=   72 fps=0.8 q=40.1 size=     256KiB time=00:00:01.16 bitrate=1797.9kbits/s speed=0.0124x elapsed=0:01:34.18    \nframe=   73 fps=0.8 q=40.0 size=     256KiB time=00:00:01.18 bitrate=1772.5kbits/s speed=0.0125x elapsed=0:01:34.72    \nframe=   74 fps=0.8 q=33.7 size=     256KiB time=00:00:01.20 bitrate=1747.9kbits/s speed=0.0126x elapsed=0:01:35.26    \nframe=   74 fps=0.8 q=33.7 size=     256KiB time=00:00:01.20 bitrate=1747.9kbits/s speed=0.0125x elapsed=0:01:35.79    \nframe=   75 fps=0.8 q=35.6 size=     256KiB time=00:00:01.21 bitrate=1724.0kbits/s speed=0.0126x elapsed=0:01:36.32    \nframe=   76 fps=0.8 q=40.1 size=     256KiB time=00:00:01.23 bitrate=1700.7kbits/s speed=0.0127x elapsed=0:01:36.84    \nframe=   76 fps=0.8 q=40.1 size=     256KiB time=00:00:01.23 bitrate=1700.7kbits/s speed=0.0127x elapsed=0:01:37.37    \nframe=   77 fps=0.8 q=39.9 size=     256KiB time=00:00:01.25 bitrate=1678.0kbits/s speed=0.0128x elapsed=0:01:37.89    \nframe=   77 fps=0.8 q=39.9 size=     256KiB time=00:00:01.25 bitrate=1678.0kbits/s speed=0.0127x elapsed=0:01:38.40    \nframe=   77 fps=0.8 q=39.9 size=     256KiB time=00:00:01.25 bitrate=1678.0kbits/s speed=0.0126x elapsed=0:01:38.92    \nframe=   78 fps=0.8 q=40.8 size=     256KiB time=00:00:01.26 bitrate=1655.9kbits/s speed=0.0127x elapsed=0:01:39.43    \nframe=   80 fps=0.8 q=39.8 size=     256KiB time=00:00:01.30 bitrate=1613.5kbits/s speed=0.013x elapsed=0:01:39.95    \nframe=   80 fps=0.8 q=39.8 size=     256KiB time=00:00:01.30 bitrate=1613.5kbits/s speed=0.0129x elapsed=0:01:40.46    \nframe=   80 fps=0.8 q=39.8 size=     256KiB time=00:00:01.30 bitrate=1613.5kbits/s speed=0.0129x elapsed=0:01:41.00    \nframe=   81 fps=0.8 q=40.8 size=     256KiB time=00:00:01.31 bitrate=1593.0kbits/s speed=0.013x elapsed=0:01:41.53    \nframe=   81 fps=0.8 q=40.8 size=     256KiB time=00:00:01.31 bitrate=1593.0kbits/s speed=0.0129x elapsed=0:01:42.09    \nframe=   81 fps=0.8 q=40.8 size=     256KiB time=00:00:01.31 bitrate=1593.0kbits/s speed=0.0128x elapsed=0:01:42.62    \nframe=   82 fps=0.8 q=40.7 size=     256KiB time=00:00:01.33 bitrate=1573.1kbits/s speed=0.0129x elapsed=0:01:43.14    \nframe=   82 fps=0.8 q=40.7 size=     256KiB time=00:00:01.33 bitrate=1573.1kbits/s speed=0.0129x elapsed=0:01:43.66    \nframe=   83 fps=0.8 q=40.1 size=     256KiB time=00:00:01.35 bitrate=1553.7kbits/s speed=0.013x elapsed=0:01:44.21    \nframe=   83 fps=0.8 q=40.1 size=     256KiB time=00:00:01.35 bitrate=1553.7kbits/s speed=0.0129x elapsed=0:01:44.76    \nframe=   84 fps=0.8 q=33.9 size=     256KiB time=00:00:01.36 bitrate=1534.8kbits/s speed=0.013x elapsed=0:01:45.28    \nframe=   84 fps=0.8 q=33.9 size=     256KiB time=00:00:01.36 bitrate=1534.8kbits/s speed=0.0129x elapsed=0:01:45.82    \nframe=   85 fps=0.8 q=38.8 size=     256KiB time=00:00:01.38 bitrate=1516.3kbits/s speed=0.013x elapsed=0:01:46.34    \nframe=   86 fps=0.8 q=39.9 size=     256KiB time=00:00:01.38 bitrate=1516.3kbits/s speed=0.0129x elapsed=0:01:46.88    \nframe=   86 fps=0.8 q=39.9 size=     256KiB time=00:00:01.40 bitrate=1498.2kbits/s speed=0.013x elapsed=0:01:47.43    \nframe=   86 fps=0.8 q=39.9 size=     256KiB time=00:00:01.40 bitrate=1498.2kbits/s speed=0.013x elapsed=0:01:47.96    \nframe=   87 fps=0.8 q=39.9 size=     256KiB time=00:00:01.41 bitrate=1480.6kbits/s speed=0.0131x elapsed=0:01:48.50    \nframe=   87 fps=0.8 q=39.9 size=     256KiB time=00:00:01.41 bitrate=1480.6kbits/s speed=0.013x elapsed=0:01:49.03    \nframe=   88 fps=0.8 q=39.9 size=     256KiB time=00:00:01.43 bitrate=1463.4kbits/s speed=0.0131x elapsed=0:01:49.56    \nframe=   89 fps=0.8 q=33.7 size=     256KiB time=00:00:01.45 bitrate=1446.6kbits/s speed=0.0132x elapsed=0:01:50.09    \nframe=   90 fps=0.8 q=38.9 size=     256KiB time=00:00:01.46 bitrate=1430.1kbits/s speed=0.0133x elapsed=0:01:50.60    \nframe=   91 fps=0.8 q=40.0 size=     256KiB time=00:00:01.48 bitrate=1414.0kbits/s speed=0.0133x elapsed=0:01:51.12    \nframe=   91 fps=0.8 q=40.0 size=     256KiB time=00:00:01.48 bitrate=1414.0kbits/s speed=0.0133x elapsed=0:01:51.64    \nframe=   91 fps=0.8 q=40.0 size=     256KiB time=00:00:01.48 bitrate=1414.0kbits/s speed=0.0132x elapsed=0:01:52.15    \nframe=   91 fps=0.8 q=40.0 size=     256KiB time=00:00:01.48 bitrate=1414.0kbits/s speed=0.0132x elapsed=0:01:52.67    \nframe=   91 fps=0.8 q=40.0 size=     256KiB time=00:00:01.48 bitrate=1414.0kbits/s speed=0.0131x elapsed=0:01:53.21    \nframe=   92 fps=0.8 q=39.9 size=     256KiB time=00:00:01.50 bitrate=1398.3kbits/s speed=0.0132x elapsed=0:01:53.74    \nframe=   93 fps=0.8 q=39.8 size=     256KiB time=00:00:01.51 bitrate=1383.0kbits/s speed=0.0133x elapsed=0:01:54.26    \nframe=   93 fps=0.8 q=39.8 size=     256KiB time=00:00:01.51 bitrate=1383.0kbits/s speed=0.0132x elapsed=0:01:54.79    \nframe=   94 fps=0.8 q=33.8 size=     256KiB time=00:00:01.53 bitrate=1367.9kbits/s speed=0.0133x elapsed=0:01:55.31    \nframe=   95 fps=0.8 q=38.5 size=     256KiB time=00:00:01.55 bitrate=1353.2kbits/s speed=0.0134x elapsed=0:01:55.82    \nframe=   95 fps=0.8 q=38.5 size=     256KiB time=00:00:01.55 bitrate=1353.2kbits/s speed=0.0133x elapsed=0:01:56.34    \nframe=   96 fps=0.8 q=40.0 size=     256KiB time=00:00:01.56 bitrate=1338.8kbits/s speed=0.0134x elapsed=0:01:56.86    \nframe=   96 fps=0.8 q=40.0 size=     256KiB time=00:00:01.56 bitrate=1338.8kbits/s speed=0.0133x elapsed=0:01:57.38    \nframe=   96 fps=0.8 q=40.0 size=     256KiB time=00:00:01.56 bitrate=1338.8kbits/s speed=0.0133x elapsed=0:01:57.90    \nframe=   97 fps=0.8 q=39.8 size=     256KiB time=00:00:01.58 bitrate=1324.7kbits/s speed=0.0134x elapsed=0:01:58.42    \nframe=   97 fps=0.8 q=39.8 size=     256KiB time=00:00:01.58 bitrate=1324.7kbits/s speed=0.0133x elapsed=0:01:58.94    \nframe=   98 fps=0.8 q=39.9 size=     256KiB time=00:00:01.60 bitrate=1310.9kbits/s speed=0.0134x elapsed=0:01:59.46    \nframe=   98 fps=0.8 q=39.9 size=     256KiB time=00:00:01.60 bitrate=1310.9kbits/s speed=0.0133x elapsed=0:01:59.99    \nframe=   99 fps=0.8 q=34.3 size=     256KiB time=00:00:01.61 bitrate=1297.4kbits/s speed=0.0134x elapsed=0:02:00.52    \nframe=  100 fps=0.8 q=38.8 size=     256KiB time=00:00:01.63 bitrate=1284.2kbits/s speed=0.0135x elapsed=0:02:01.05    \nframe=  100 fps=0.8 q=38.8 size=     256KiB time=00:00:01.63 bitrate=1284.2kbits/s speed=0.0134x elapsed=0:02:01.56    \nframe=  101 fps=0.8 q=40.0 size=     256KiB time=00:00:01.65 bitrate=1271.2kbits/s speed=0.0135x elapsed=0:02:02.08    \nframe=  101 fps=0.8 q=40.0 size=     256KiB time=00:00:01.65 bitrate=1271.2kbits/s speed=0.0135x elapsed=0:02:02.61    \nframe=  101 fps=0.8 q=40.0 size=     256KiB time=00:00:01.65 bitrate=1271.2kbits/s speed=0.0134x elapsed=0:02:03.15    \nframe=  102 fps=0.8 q=39.7 size=     256KiB time=00:00:01.65 bitrate=1271.2kbits/s speed=0.0133x elapsed=0:02:03.66    \nframe=  102 fps=0.8 q=39.7 size=     256KiB time=00:00:01.66 bitrate=1258.5kbits/s speed=0.0134x elapsed=0:02:04.20    \nframe=  103 fps=0.8 q=39.8 size=     256KiB time=00:00:01.68 bitrate=1246.0kbits/s speed=0.0135x elapsed=0:02:04.73    \nframe=  103 fps=0.8 q=39.8 size=     256KiB time=00:00:01.68 bitrate=1246.0kbits/s speed=0.0134x elapsed=0:02:05.27    \nframe=  104 fps=0.8 q=34.2 size=     256KiB time=00:00:01.70 bitrate=1233.8kbits/s speed=0.0135x elapsed=0:02:05.79    \nframe=  105 fps=0.8 q=37.9 size=     256KiB time=00:00:01.71 bitrate=1221.8kbits/s speed=0.0136x elapsed=0:02:06.30    \nframe=  105 fps=0.8 q=37.9 size=     256KiB time=00:00:01.71 bitrate=1221.8kbits/s speed=0.0135x elapsed=0:02:06.82    \nframe=  105 fps=0.8 q=37.9 size=     256KiB time=00:00:01.71 bitrate=1221.8kbits/s speed=0.0135x elapsed=0:02:07.34    \nframe=  106 fps=0.8 q=39.8 size=     256KiB time=00:00:01.73 bitrate=1210.1kbits/s speed=0.0136x elapsed=0:02:07.86    \nframe=  107 fps=0.8 q=40.7 size=     256KiB time=00:00:01.75 bitrate=1198.6kbits/s speed=0.0136x elapsed=0:02:08.39    \nframe=  107 fps=0.8 q=40.7 size=     256KiB time=00:00:01.75 bitrate=1198.6kbits/s speed=0.0136x elapsed=0:02:08.93    \nframe=  107 fps=0.8 q=40.7 size=     256KiB time=00:00:01.75 bitrate=1198.6kbits/s speed=0.0135x elapsed=0:02:09.46    \nframe=  108 fps=0.8 q=33.9 size=     256KiB time=00:00:01.76 bitrate=1187.3kbits/s speed=0.0136x elapsed=0:02:09.98    \nframe=  108 fps=0.8 q=33.9 size=     256KiB time=00:00:01.76 bitrate=1187.3kbits/s speed=0.0135x elapsed=0:02:10.51    \nframe=  108 fps=0.8 q=33.9 size=     256KiB time=00:00:01.76 bitrate=1187.3kbits/s speed=0.0135x elapsed=0:02:11.03    \nframe=  109 fps=0.8 q=37.8 size=     512KiB time=00:00:01.78 bitrate=2352.1kbits/s speed=0.0136x elapsed=0:02:11.55    \nframe=  110 fps=0.8 q=39.8 size=     512KiB time=00:00:01.80 bitrate=2330.4kbits/s speed=0.0136x elapsed=0:02:12.07    \nframe=  110 fps=0.8 q=39.8 size=     512KiB time=00:00:01.80 bitrate=2330.4kbits/s speed=0.0136x elapsed=0:02:12.59    \nframe=  110 fps=0.8 q=39.8 size=     512KiB time=00:00:01.80 bitrate=2330.4kbits/s speed=0.0135x elapsed=0:02:13.13    \nframe=  111 fps=0.8 q=39.8 size=     512KiB time=00:00:01.81 bitrate=2309.0kbits/s speed=0.0136x elapsed=0:02:13.66    \nframe=  111 fps=0.8 q=39.8 size=     512KiB time=00:00:01.81 bitrate=2309.0kbits/s speed=0.0135x elapsed=0:02:14.19    \nframe=  112 fps=0.8 q=39.9 size=     512KiB time=00:00:01.83 bitrate=2288.0kbits/s speed=0.0136x elapsed=0:02:14.70    \nframe=  112 fps=0.8 q=39.9 size=     512KiB time=00:00:01.83 bitrate=2288.0kbits/s speed=0.0136x elapsed=0:02:15.21    \nframe=  112 fps=0.8 q=39.9 size=     512KiB time=00:00:01.83 bitrate=2288.0kbits/s speed=0.0135x elapsed=0:02:15.74    \nframe=  112 fps=0.8 q=39.9 size=     512KiB time=00:00:01.83 bitrate=2288.0kbits/s speed=0.0135x elapsed=0:02:16.24    \nframe=  113 fps=0.8 q=34.2 size=     512KiB time=00:00:01.85 bitrate=2267.4kbits/s speed=0.0135x elapsed=0:02:16.77    \nframe=  114 fps=0.8 q=34.7 size=     512KiB time=00:00:01.86 bitrate=2247.1kbits/s speed=0.0136x elapsed=0:02:17.30    \nframe=  115 fps=0.8 q=39.9 size=     512KiB time=00:00:01.88 bitrate=2227.3kbits/s speed=0.0137x elapsed=0:02:17.81    \nframe=  115 fps=0.8 q=39.9 size=     512KiB time=00:00:01.88 bitrate=2227.3kbits/s speed=0.0136x elapsed=0:02:18.35    \nframe=  115 fps=0.8 q=39.9 size=     512KiB time=00:00:01.88 bitrate=2227.3kbits/s speed=0.0136x elapsed=0:02:18.86    \nframe=  116 fps=0.8 q=39.8 size=     512KiB time=00:00:01.90 bitrate=2207.7kbits/s speed=0.0136x elapsed=0:02:19.39    \nframe=  116 fps=0.8 q=39.8 size=     512KiB time=00:00:01.90 bitrate=2207.7kbits/s speed=0.0136x elapsed=0:02:19.92    \nframe=  117 fps=0.8 q=39.9 size=     512KiB time=00:00:01.91 bitrate=2188.5kbits/s speed=0.0136x elapsed=0:02:20.46    \nframe=  118 fps=0.8 q=34.4 size=     512KiB time=00:00:01.93 bitrate=2169.7kbits/s speed=0.0137x elapsed=0:02:20.98    \nframe=  118 fps=0.8 q=34.4 size=     512KiB time=00:00:01.93 bitrate=2169.7kbits/s speed=0.0137x elapsed=0:02:21.50    \nframe=  119 fps=0.8 q=37.9 size=     512KiB time=00:00:01.95 bitrate=2151.1kbits/s speed=0.0137x elapsed=0:02:22.01    \nframe=  120 fps=0.8 q=40.9 size=     512KiB time=00:00:01.96 bitrate=2132.9kbits/s speed=0.0138x elapsed=0:02:22.53    \nframe=  120 fps=0.8 q=40.9 size=     512KiB time=00:00:01.96 bitrate=2132.9kbits/s speed=0.0137x elapsed=0:02:23.06    \nframe=  120 fps=0.8 q=40.9 size=     512KiB time=00:00:01.96 bitrate=2132.9kbits/s speed=0.0137x elapsed=0:02:23.58    \nframe=  121 fps=0.8 q=40.0 size=     512KiB time=00:00:01.98 bitrate=2115.0kbits/s speed=0.0138x elapsed=0:02:24.10    \nframe=  122 fps=0.8 q=40.0 size=     512KiB time=00:00:02.00 bitrate=2097.3kbits/s speed=0.0138x elapsed=0:02:24.62    \nframe=  122 fps=0.8 q=40.0 size=     512KiB time=00:00:02.00 bitrate=2097.3kbits/s speed=0.0138x elapsed=0:02:25.13    \nframe=  123 fps=0.8 q=34.3 size=     512KiB time=00:00:02.01 bitrate=2080.0kbits/s speed=0.0138x elapsed=0:02:25.65    \nframe=  123 fps=0.8 q=34.3 size=     512KiB time=00:00:02.01 bitrate=2080.0kbits/s speed=0.0138x elapsed=0:02:26.17    \nframe=  124 fps=0.8 q=38.7 size=     512KiB time=00:00:02.03 bitrate=2062.9kbits/s speed=0.0139x elapsed=0:02:26.68    \nframe=  125 fps=0.8 q=39.8 size=     512KiB time=00:00:02.05 bitrate=2046.2kbits/s speed=0.0139x elapsed=0:02:27.20    \nframe=  125 fps=0.8 q=39.8 size=     512KiB time=00:00:02.05 bitrate=2046.2kbits/s speed=0.0139x elapsed=0:02:27.73    \nframe=  126 fps=0.8 q=39.7 size=     512KiB time=00:00:02.06 bitrate=2029.7kbits/s speed=0.0139x elapsed=0:02:28.28    \nframe=  126 fps=0.8 q=39.7 size=     512KiB time=00:00:02.06 bitrate=2029.7kbits/s speed=0.0139x elapsed=0:02:28.80    \nframe=  127 fps=0.9 q=39.5 size=     512KiB time=00:00:02.08 bitrate=2013.4kbits/s speed=0.014x elapsed=0:02:29.32    \nframe=  127 fps=0.8 q=39.5 size=     512KiB time=00:00:02.08 bitrate=2013.4kbits/s speed=0.0139x elapsed=0:02:29.86    \nframe=  127 fps=0.8 q=39.5 size=     512KiB time=00:00:02.08 bitrate=2013.4kbits/s speed=0.0139x elapsed=0:02:30.38    \nframe=  128 fps=0.8 q=33.9 size=     512KiB time=00:00:02.10 bitrate=1997.5kbits/s speed=0.0139x elapsed=0:02:30.91    \nframe=  129 fps=0.9 q=37.9 size=     512KiB time=00:00:02.11 bitrate=1981.7kbits/s speed=0.014x elapsed=0:02:31.44    \nframe=  129 fps=0.8 q=37.9 size=     512KiB time=00:00:02.11 bitrate=1981.7kbits/s speed=0.0139x elapsed=0:02:31.95    \nframe=  129 fps=0.8 q=37.9 size=     512KiB time=00:00:02.11 bitrate=1981.7kbits/s speed=0.0139x elapsed=0:02:32.48    \nframe=  129 fps=0.8 q=37.9 size=     512KiB time=00:00:02.11 bitrate=1981.7kbits/s speed=0.0138x elapsed=0:02:32.99    \nframe=  130 fps=0.8 q=39.7 size=     512KiB time=00:00:02.13 bitrate=1966.2kbits/s speed=0.0139x elapsed=0:02:33.53    \nframe=  130 fps=0.8 q=39.7 size=     512KiB time=00:00:02.13 bitrate=1966.2kbits/s speed=0.0138x elapsed=0:02:34.07    \nframe=  131 fps=0.8 q=39.7 size=     512KiB time=00:00:02.15 bitrate=1951.0kbits/s speed=0.0139x elapsed=0:02:34.59    \nframe=  131 fps=0.8 q=39.7 size=     512KiB time=00:00:02.15 bitrate=1951.0kbits/s speed=0.0139x elapsed=0:02:35.11    \nframe=  131 fps=0.8 q=39.7 size=     512KiB time=00:00:02.15 bitrate=1951.0kbits/s speed=0.0138x elapsed=0:02:35.62    \nframe=  132 fps=0.8 q=33.8 size=     512KiB time=00:00:02.16 bitrate=1936.0kbits/s speed=0.0139x elapsed=0:02:36.15    \nframe=  132 fps=0.8 q=33.8 size=     512KiB time=00:00:02.16 bitrate=1936.0kbits/s speed=0.0138x elapsed=0:02:36.67    \nframe=  133 fps=0.8 q=36.2 size=     512KiB time=00:00:02.18 bitrate=1921.2kbits/s speed=0.0139x elapsed=0:02:37.19    \nframe=  134 fps=0.8 q=38.9 size=     512KiB time=00:00:02.20 bitrate=1906.7kbits/s speed=0.0139x elapsed=0:02:37.72    \nframe=  134 fps=0.8 q=38.9 size=     512KiB time=00:00:02.20 bitrate=1906.7kbits/s speed=0.0139x elapsed=0:02:38.23    \nframe=  135 fps=0.9 q=38.7 size=     512KiB time=00:00:02.21 bitrate=1892.3kbits/s speed=0.014x elapsed=0:02:38.74    \nframe=  136 fps=0.9 q=38.8 size=     512KiB time=00:00:02.23 bitrate=1878.2kbits/s speed=0.014x elapsed=0:02:39.26    \nframe=  137 fps=0.9 q=33.6 size=     512KiB time=00:00:02.25 bitrate=1864.3kbits/s speed=0.0141x elapsed=0:02:39.78    \nframe=  137 fps=0.9 q=33.6 size=     512KiB time=00:00:02.25 bitrate=1864.3kbits/s speed=0.014x elapsed=0:02:40.32    \nframe=  137 fps=0.9 q=33.6 size=     512KiB time=00:00:02.25 bitrate=1864.3kbits/s speed=0.014x elapsed=0:02:40.86    \nframe=  139 fps=0.9 q=38.9 size=     512KiB time=00:00:02.28 bitrate=1837.1kbits/s speed=0.0141x elapsed=0:02:41.41    \nframe=  139 fps=0.9 q=38.9 size=     512KiB time=00:00:02.28 bitrate=1837.1kbits/s speed=0.0141x elapsed=0:02:41.93    \nframe=  139 fps=0.9 q=38.9 size=     512KiB time=00:00:02.28 bitrate=1837.1kbits/s speed=0.0141x elapsed=0:02:42.44    \nframe=  139 fps=0.9 q=38.9 size=     512KiB time=00:00:02.28 bitrate=1837.1kbits/s speed=0.014x elapsed=0:02:42.96    \nframe=  140 fps=0.9 q=38.7 size=     512KiB time=00:00:02.30 bitrate=1823.8kbits/s speed=0.0141x elapsed=0:02:43.48    \nframe=  140 fps=0.9 q=38.7 size=     512KiB time=00:00:02.30 bitrate=1823.8kbits/s speed=0.014x elapsed=0:02:44.00    \nframe=  141 fps=0.9 q=39.8 size=     512KiB time=00:00:02.31 bitrate=1810.6kbits/s speed=0.0141x elapsed=0:02:44.54    \nframe=  142 fps=0.9 q=34.0 size=     512KiB time=00:00:02.33 bitrate=1797.7kbits/s speed=0.0141x elapsed=0:02:45.06    \nframe=  142 fps=0.9 q=34.0 size=     512KiB time=00:00:02.33 bitrate=1797.7kbits/s speed=0.0141x elapsed=0:02:45.58    \nframe=  142 fps=0.9 q=34.0 size=     512KiB time=00:00:02.33 bitrate=1797.7kbits/s speed=0.014x elapsed=0:02:46.10    \nframe=  143 fps=0.9 q=35.6 size=     512KiB time=00:00:02.33 bitrate=1797.7kbits/s speed=0.014x elapsed=0:02:46.61    \nframe=  145 fps=0.9 q=39.0 size=     512KiB time=00:00:02.36 bitrate=1772.4kbits/s speed=0.0142x elapsed=0:02:47.14    \nframe=  145 fps=0.9 q=39.0 size=     512KiB time=00:00:02.38 bitrate=1760.0kbits/s speed=0.0142x elapsed=0:02:47.70    \nframe=  145 fps=0.9 q=39.0 size=     512KiB time=00:00:02.38 bitrate=1760.0kbits/s speed=0.0142x elapsed=0:02:48.22    \nframe=  145 fps=0.9 q=39.0 size=     512KiB time=00:00:02.38 bitrate=1760.0kbits/s speed=0.0141x elapsed=0:02:48.73    \nframe=  145 fps=0.9 q=39.0 size=     512KiB time=00:00:02.38 bitrate=1760.0kbits/s speed=0.0141x elapsed=0:02:49.25    \nframe=  146 fps=0.9 q=39.0 size=     512KiB time=00:00:02.40 bitrate=1747.8kbits/s speed=0.0141x elapsed=0:02:49.78    \nframe=  146 fps=0.9 q=39.0 size=     512KiB time=00:00:02.40 bitrate=1747.8kbits/s speed=0.0141x elapsed=0:02:50.32    \nframe=  147 fps=0.9 q=33.5 size=     512KiB time=00:00:02.41 bitrate=1735.7kbits/s speed=0.0141x elapsed=0:02:50.83    \nframe=  147 fps=0.9 q=33.5 size=     512KiB time=00:00:02.41 bitrate=1735.7kbits/s speed=0.0141x elapsed=0:02:51.34    \nframe=  148 fps=0.9 q=37.8 size=     512KiB time=00:00:02.43 bitrate=1723.8kbits/s speed=0.0142x elapsed=0:02:51.86    \nframe=  149 fps=0.9 q=39.9 size=     512KiB time=00:00:02.45 bitrate=1712.1kbits/s speed=0.0142x elapsed=0:02:52.37    \nframe=  149 fps=0.9 q=39.9 size=     512KiB time=00:00:02.45 bitrate=1712.1kbits/s speed=0.0142x elapsed=0:02:52.89    \nframe=  149 fps=0.9 q=39.9 size=     512KiB time=00:00:02.45 bitrate=1712.1kbits/s speed=0.0141x elapsed=0:02:53.45    \nframe=  150 fps=0.9 q=39.0 size=     512KiB time=00:00:02.46 bitrate=1700.5kbits/s speed=0.0142x elapsed=0:02:53.99    \nframe=  150 fps=0.9 q=39.0 size=     512KiB time=00:00:02.46 bitrate=1700.5kbits/s speed=0.0141x elapsed=0:02:54.51    \nframe=  150 fps=0.9 q=39.0 size=     512KiB time=00:00:02.46 bitrate=1700.5kbits/s speed=0.0141x elapsed=0:02:55.06    \nframe=  151 fps=0.9 q=33.0 size=     512KiB time=00:00:02.48 bitrate=1689.1kbits/s speed=0.0141x elapsed=0:02:55.59    \nframe=  151 fps=0.9 q=33.0 size=     512KiB time=00:00:02.48 bitrate=1689.1kbits/s speed=0.0141x elapsed=0:02:56.12    \nframe=  151 fps=0.9 q=33.0 size=     512KiB time=00:00:02.48 bitrate=1689.1kbits/s speed=0.0141x elapsed=0:02:56.64    \nframe=  153 fps=0.9 q=38.7 size=     512KiB time=00:00:02.51 bitrate=1666.8kbits/s speed=0.0142x elapsed=0:02:57.15    \nframe=  154 fps=0.9 q=38.6 size=     512KiB time=00:00:02.53 bitrate=1655.8kbits/s speed=0.0143x elapsed=0:02:57.69    \nframe=  154 fps=0.9 q=38.6 size=     512KiB time=00:00:02.53 bitrate=1655.8kbits/s speed=0.0142x elapsed=0:02:58.21    \nframe=  154 fps=0.9 q=38.6 size=     512KiB time=00:00:02.53 bitrate=1655.8kbits/s speed=0.0142x elapsed=0:02:58.74    \nframe=  154 fps=0.9 q=38.6 size=     512KiB time=00:00:02.53 bitrate=1655.8kbits/s speed=0.0141x elapsed=0:02:59.27    \nframe=  155 fps=0.9 q=38.7 size=     512KiB time=00:00:02.55 bitrate=1645.0kbits/s speed=0.0142x elapsed=0:02:59.79    \nframe=  155 fps=0.9 q=38.7 size=     512KiB time=00:00:02.55 bitrate=1645.0kbits/s speed=0.0141x elapsed=0:03:00.32    \nframe=  156 fps=0.9 q=33.0 size=     512KiB time=00:00:02.56 bitrate=1634.3kbits/s speed=0.0142x elapsed=0:03:00.86    \nframe=  157 fps=0.9 q=36.4 size=     512KiB time=00:00:02.58 bitrate=1623.7kbits/s speed=0.0142x elapsed=0:03:01.38    \nframe=  157 fps=0.9 q=36.4 size=     512KiB time=00:00:02.58 bitrate=1623.7kbits/s speed=0.0142x elapsed=0:03:01.91    \nframe=  158 fps=0.9 q=38.5 size=     512KiB time=00:00:02.60 bitrate=1613.3kbits/s speed=0.0143x elapsed=0:03:02.44    \nframe=  158 fps=0.9 q=38.5 size=     512KiB time=00:00:02.60 bitrate=1613.3kbits/s speed=0.0142x elapsed=0:03:02.98    \nframe=  158 fps=0.9 q=38.5 size=     512KiB time=00:00:02.60 bitrate=1613.3kbits/s speed=0.0142x elapsed=0:03:03.50    \nframe=  159 fps=0.9 q=38.8 size=     512KiB time=00:00:02.61 bitrate=1603.1kbits/s speed=0.0142x elapsed=0:03:04.03    \nframe=  159 fps=0.9 q=38.8 size=     512KiB time=00:00:02.61 bitrate=1603.1kbits/s speed=0.0142x elapsed=0:03:04.57    \nframe=  160 fps=0.9 q=38.0 size=     768KiB time=00:00:02.63 bitrate=2389.3kbits/s speed=0.0142x elapsed=0:03:05.11    \nframe=  160 fps=0.9 q=38.0 size=     768KiB time=00:00:02.63 bitrate=2389.3kbits/s speed=0.0142x elapsed=0:03:05.64    \nframe=  161 fps=0.9 q=33.5 size=     768KiB time=00:00:02.65 bitrate=2374.3kbits/s speed=0.0142x elapsed=0:03:06.17    \nframe=  162 fps=0.9 q=36.3 size=     768KiB time=00:00:02.66 bitrate=2359.4kbits/s speed=0.0143x elapsed=0:03:06.69    \nframe=  163 fps=0.9 q=38.7 size=     768KiB time=00:00:02.68 bitrate=2344.8kbits/s speed=0.0143x elapsed=0:03:07.20    \nframe=  165 fps=0.9 q=38.9 size=     768KiB time=00:00:02.71 bitrate=2316.0kbits/s speed=0.0145x elapsed=0:03:07.71    \nframe=  166 fps=0.9 q=33.1 size=     768KiB time=00:00:02.73 bitrate=2301.9kbits/s speed=0.0145x elapsed=0:03:08.23    \nframe=  167 fps=0.9 q=36.8 size=     768KiB time=00:00:02.75 bitrate=2287.9kbits/s speed=0.0146x elapsed=0:03:08.75    \nframe=  168 fps=0.9 q=38.6 size=     768KiB time=00:00:02.76 bitrate=2274.1kbits/s speed=0.0146x elapsed=0:03:09.27    \nframe=  169 fps=0.9 q=38.7 size=     768KiB time=00:00:02.78 bitrate=2260.5kbits/s speed=0.0147x elapsed=0:03:09.81    \nframe=  169 fps=0.9 q=38.7 size=     768KiB time=00:00:02.78 bitrate=2260.5kbits/s speed=0.0146x elapsed=0:03:10.37    \nframe=  170 fps=0.9 q=33.2 size=     768KiB time=00:00:02.80 bitrate=2247.1kbits/s speed=0.0147x elapsed=0:03:10.89    \nframe=  170 fps=0.9 q=33.2 size=     768KiB time=00:00:02.80 bitrate=2247.1kbits/s speed=0.0146x elapsed=0:03:11.41    \nframe=  170 fps=0.9 q=33.2 size=     768KiB time=00:00:02.80 bitrate=2247.1kbits/s speed=0.0146x elapsed=0:03:11.94    \nframe=  170 fps=0.9 q=33.2 size=     768KiB time=00:00:02.80 bitrate=2247.1kbits/s speed=0.0145x elapsed=0:03:12.50    \nframe=  171 fps=0.9 q=35.0 size=     768KiB time=00:00:02.81 bitrate=2233.8kbits/s speed=0.0146x elapsed=0:03:13.03    \nframe=  171 fps=0.9 q=35.0 size=     768KiB time=00:00:02.81 bitrate=2233.8kbits/s speed=0.0146x elapsed=0:03:13.55    \nframe=  172 fps=0.9 q=37.4 size=     768KiB time=00:00:02.83 bitrate=2220.6kbits/s speed=0.0146x elapsed=0:03:14.09    \nframe=  172 fps=0.9 q=37.4 size=     768KiB time=00:00:02.83 bitrate=2220.6kbits/s speed=0.0146x elapsed=0:03:14.61    \nframe=  173 fps=0.9 q=37.5 size=     768KiB time=00:00:02.85 bitrate=2207.7kbits/s speed=0.0146x elapsed=0:03:15.13    \nframe=  173 fps=0.9 q=37.5 size=     768KiB time=00:00:02.85 bitrate=2207.7kbits/s speed=0.0146x elapsed=0:03:15.65    \nframe=  174 fps=0.9 q=37.7 size=     768KiB time=00:00:02.86 bitrate=2194.8kbits/s speed=0.0146x elapsed=0:03:16.15    \nframe=  174 fps=0.9 q=37.7 size=     768KiB time=00:00:02.86 bitrate=2194.8kbits/s speed=0.0146x elapsed=0:03:16.70    \nframe=  174 fps=0.9 q=37.7 size=     768KiB time=00:00:02.86 bitrate=2194.8kbits/s speed=0.0145x elapsed=0:03:17.23    \nframe=  175 fps=0.9 q=32.9 size=     768KiB time=00:00:02.88 bitrate=2182.1kbits/s speed=0.0146x elapsed=0:03:17.75    \nframe=  175 fps=0.9 q=32.9 size=     768KiB time=00:00:02.88 bitrate=2182.1kbits/s speed=0.0145x elapsed=0:03:18.29    \nframe=  175 fps=0.9 q=32.9 size=     768KiB time=00:00:02.88 bitrate=2182.1kbits/s speed=0.0145x elapsed=0:03:18.82    \nframe=  175 fps=0.9 q=32.9 size=     768KiB time=00:00:02.88 bitrate=2182.1kbits/s speed=0.0145x elapsed=0:03:19.33    \nframe=  175 fps=0.9 q=32.9 size=     768KiB time=00:00:02.88 bitrate=2182.1kbits/s speed=0.0144x elapsed=0:03:19.87    \nframe=  176 fps=0.9 q=35.6 size=     768KiB time=00:00:02.90 bitrate=2169.6kbits/s speed=0.0145x elapsed=0:03:20.40    \nframe=  176 fps=0.9 q=35.6 size=     768KiB time=00:00:02.90 bitrate=2169.6kbits/s speed=0.0144x elapsed=0:03:20.92    \nframe=  176 fps=0.9 q=35.6 size=     768KiB time=00:00:02.90 bitrate=2169.6kbits/s speed=0.0144x elapsed=0:03:21.44    \nframe=  177 fps=0.9 q=37.9 size=     768KiB time=00:00:02.91 bitrate=2157.2kbits/s speed=0.0144x elapsed=0:03:21.98    \nframe=  177 fps=0.9 q=37.9 size=     768KiB time=00:00:02.91 bitrate=2157.2kbits/s speed=0.0144x elapsed=0:03:22.49    \nframe=  178 fps=0.9 q=38.7 size=     768KiB time=00:00:02.93 bitrate=2144.9kbits/s speed=0.0144x elapsed=0:03:23.02    \nframe=  179 fps=0.9 q=38.7 size=     768KiB time=00:00:02.95 bitrate=2132.8kbits/s speed=0.0145x elapsed=0:03:23.54    \nframe=  181 fps=0.9 q=36.6 size=     768KiB time=00:00:02.98 bitrate=2109.0kbits/s speed=0.0146x elapsed=0:03:24.05    \nframe=  181 fps=0.9 q=36.6 size=     768KiB time=00:00:02.98 bitrate=2109.0kbits/s speed=0.0146x elapsed=0:03:24.57    \nframe=  183 fps=0.9 q=38.7 size=     768KiB time=00:00:03.01 bitrate=2085.7kbits/s speed=0.0147x elapsed=0:03:25.07    \nframe=  184 fps=0.9 q=32.5 size=     768KiB time=00:00:03.03 bitrate=2074.2kbits/s speed=0.0148x elapsed=0:03:25.59    \nframe=  186 fps=0.9 q=37.8 size=     768KiB time=00:00:03.06 bitrate=2051.7kbits/s speed=0.0149x elapsed=0:03:26.11    \nframe=  187 fps=0.9 q=37.7 size=     768KiB time=00:00:03.08 bitrate=2040.6kbits/s speed=0.0149x elapsed=0:03:26.63    \nframe=  188 fps=0.9 q=37.7 size=     768KiB time=00:00:03.10 bitrate=2029.6kbits/s speed=0.015x elapsed=0:03:27.14    \nframe=  189 fps=0.9 q=32.7 size=     768KiB time=00:00:03.11 bitrate=2018.8kbits/s speed=0.015x elapsed=0:03:27.65    \nframe=  190 fps=0.9 q=32.6 size=     768KiB time=00:00:03.13 bitrate=2008.0kbits/s speed=0.0151x elapsed=0:03:28.17    \nframe=  191 fps=0.9 q=37.8 size=     768KiB time=00:00:03.15 bitrate=1997.4kbits/s speed=0.0151x elapsed=0:03:28.69    \nframe=  193 fps=0.9 q=38.7 size=     768KiB time=00:00:03.18 bitrate=1976.5kbits/s speed=0.0152x elapsed=0:03:29.21    \nframe=  194 fps=0.9 q=32.6 size=     768KiB time=00:00:03.20 bitrate=1966.2kbits/s speed=0.0153x elapsed=0:03:29.72    \nframe=  195 fps=0.9 q=33.9 size=     768KiB time=00:00:03.21 bitrate=1956.0kbits/s speed=0.0153x elapsed=0:03:30.23    \nframe=  196 fps=0.9 q=38.8 size=     768KiB time=00:00:03.23 bitrate=1945.9kbits/s speed=0.0153x elapsed=0:03:30.75    \nframe=  197 fps=0.9 q=38.5 size=     768KiB time=00:00:03.25 bitrate=1935.9kbits/s speed=0.0154x elapsed=0:03:31.27    \nframe=  198 fps=0.9 q=38.8 size=     768KiB time=00:00:03.26 bitrate=1926.1kbits/s speed=0.0154x elapsed=0:03:31.78    \nframe=  200 fps=0.9 q=37.2 size=     768KiB time=00:00:03.30 bitrate=1906.6kbits/s speed=0.0155x elapsed=0:03:32.29    \nframe=  201 fps=0.9 q=38.8 size=     768KiB time=00:00:03.31 bitrate=1897.0kbits/s speed=0.0156x elapsed=0:03:32.81    \nframe=  202 fps=0.9 q=37.8 size=     768KiB time=00:00:03.33 bitrate=1887.5kbits/s speed=0.0156x elapsed=0:03:33.33    \nframe=  203 fps=0.9 q=37.8 size=     768KiB time=00:00:03.35 bitrate=1878.2kbits/s speed=0.0157x elapsed=0:03:33.84    \nframe=  205 fps=1.0 q=36.0 size=     768KiB time=00:00:03.38 bitrate=1859.6kbits/s speed=0.0158x elapsed=0:03:34.36    \nframe=  205 fps=1.0 q=36.0 size=     768KiB time=00:00:03.38 bitrate=1859.6kbits/s speed=0.0157x elapsed=0:03:34.87    \nframe=  206 fps=1.0 q=37.7 size=     768KiB time=00:00:03.40 bitrate=1850.5kbits/s speed=0.0158x elapsed=0:03:35.39    \nframe=  208 fps=1.0 q=32.7 size=     768KiB time=00:00:03.43 bitrate=1832.6kbits/s speed=0.0159x elapsed=0:03:35.91    \nframe=  209 fps=1.0 q=35.0 size=     768KiB time=00:00:03.45 bitrate=1823.7kbits/s speed=0.0159x elapsed=0:03:36.42    \nframe=  210 fps=1.0 q=37.5 size=    1024KiB time=00:00:03.46 bitrate=2419.9kbits/s speed=0.016x elapsed=0:03:36.95    \nframe=  211 fps=1.0 q=37.5 size=    1024KiB time=00:00:03.48 bitrate=2408.3kbits/s speed=0.016x elapsed=0:03:37.46    \nframe=  213 fps=1.0 q=32.8 size=    1024KiB time=00:00:03.51 bitrate=2385.5kbits/s speed=0.0161x elapsed=0:03:37.98    \nframe=  214 fps=1.0 q=36.1 size=    1024KiB time=00:00:03.53 bitrate=2374.2kbits/s speed=0.0162x elapsed=0:03:38.50    \nframe=  215 fps=1.0 q=37.2 size=    1024KiB time=00:00:03.55 bitrate=2363.1kbits/s speed=0.0162x elapsed=0:03:39.01    \nframe=  215 fps=1.0 q=37.2 size=    1024KiB time=00:00:03.55 bitrate=2363.1kbits/s speed=0.0162x elapsed=0:03:39.54    \nframe=  217 fps=1.0 q=37.6 size=    1024KiB time=00:00:03.58 bitrate=2341.1kbits/s speed=0.0163x elapsed=0:03:40.05    \nframe=  218 fps=1.0 q=32.8 size=    1024KiB time=00:00:03.60 bitrate=2330.3kbits/s speed=0.0163x elapsed=0:03:40.57    \nframe=  219 fps=1.0 q=37.0 size=    1024KiB time=00:00:03.61 bitrate=2319.5kbits/s speed=0.0164x elapsed=0:03:41.09    \nframe=  220 fps=1.0 q=38.4 size=    1024KiB time=00:00:03.63 bitrate=2308.9kbits/s speed=0.0164x elapsed=0:03:41.61    \nframe=  221 fps=1.0 q=37.5 size=    1024KiB time=00:00:03.65 bitrate=2298.3kbits/s speed=0.0164x elapsed=0:03:42.12    \nframe=  222 fps=1.0 q=37.4 size=    1024KiB time=00:00:03.66 bitrate=2287.9kbits/s speed=0.0165x elapsed=0:03:42.64    \nframe=  224 fps=1.0 q=36.6 size=    1024KiB time=00:00:03.70 bitrate=2267.3kbits/s speed=0.0166x elapsed=0:03:43.16    \nframe=  225 fps=1.0 q=37.5 size=    1024KiB time=00:00:03.71 bitrate=2257.1kbits/s speed=0.0166x elapsed=0:03:43.66    \nframe=  226 fps=1.0 q=37.2 size=    1024KiB time=00:00:03.73 bitrate=2247.0kbits/s speed=0.0167x elapsed=0:03:44.18    \nframe=  228 fps=1.0 q=33.8 size=    1024KiB time=00:00:03.76 bitrate=2227.2kbits/s speed=0.0168x elapsed=0:03:44.71    \nframe=  229 fps=1.0 q=37.7 size=    1024KiB time=00:00:03.78 bitrate=2217.3kbits/s speed=0.0168x elapsed=0:03:45.22    \nframe=  230 fps=1.0 q=39.6 size=    1024KiB time=00:00:03.80 bitrate=2207.6kbits/s speed=0.0168x elapsed=0:03:45.74    \nframe=  231 fps=1.0 q=39.8 size=    1024KiB time=00:00:03.81 bitrate=2198.0kbits/s speed=0.0169x elapsed=0:03:46.24    \nframe=  233 fps=1.0 q=37.2 size=    1024KiB time=00:00:03.85 bitrate=2179.0kbits/s speed=0.017x elapsed=0:03:46.77    \nframe=  234 fps=1.0 q=39.8 size=    1024KiB time=00:00:03.86 bitrate=2169.6kbits/s speed=0.017x elapsed=0:03:47.28    \nframe=  235 fps=1.0 q=39.8 size=    1024KiB time=00:00:03.88 bitrate=2160.2kbits/s speed=0.017x elapsed=0:03:47.79    \nframe=  236 fps=1.0 q=39.8 size=    1024KiB time=00:00:03.90 bitrate=2151.0kbits/s speed=0.0171x elapsed=0:03:48.32    \nframe=  237 fps=1.0 q=33.6 size=    1024KiB time=00:00:03.91 bitrate=2141.9kbits/s speed=0.0171x elapsed=0:03:48.83    \nframe=  238 fps=1.0 q=35.1 size=    1024KiB time=00:00:03.93 bitrate=2132.8kbits/s speed=0.0172x elapsed=0:03:49.34    \nframe=  239 fps=1.0 q=39.9 size=    1024KiB time=00:00:03.95 bitrate=2123.8kbits/s speed=0.0172x elapsed=0:03:49.85    \nframe=  240 fps=1.0 q=39.7 size=    1024KiB time=00:00:03.96 bitrate=2114.9kbits/s speed=0.0172x elapsed=0:03:50.37    \nframe=  241 fps=1.0 q=39.6 size=    1024KiB time=00:00:03.98 bitrate=2106.0kbits/s speed=0.0173x elapsed=0:03:50.89    \nframe=  243 fps=1.1 q=38.5 size=    1024KiB time=00:00:04.01 bitrate=2088.5kbits/s speed=0.0174x elapsed=0:03:51.41    \nframe=  244 fps=1.1 q=39.6 size=    1024KiB time=00:00:04.03 bitrate=2079.9kbits/s speed=0.0174x elapsed=0:03:51.92    \nframe=  245 fps=1.1 q=38.8 size=    1024KiB time=00:00:04.05 bitrate=2071.3kbits/s speed=0.0174x elapsed=0:03:52.44    \nframe=  246 fps=1.1 q=39.7 size=    1024KiB time=00:00:04.06 bitrate=2062.9kbits/s speed=0.0175x elapsed=0:03:52.95    \nframe=  248 fps=1.1 q=37.5 size=    1024KiB time=00:00:04.10 bitrate=2046.1kbits/s speed=0.0176x elapsed=0:03:53.47    \nframe=  248 fps=1.1 q=37.5 size=    1024KiB time=00:00:04.10 bitrate=2046.1kbits/s speed=0.0175x elapsed=0:03:53.98    \nframe=  248 fps=1.1 q=37.5 size=    1024KiB time=00:00:04.10 bitrate=2046.1kbits/s speed=0.0175x elapsed=0:03:54.50    \nframe=  249 fps=1.1 q=38.9 size=    1024KiB time=00:00:04.11 bitrate=2037.8kbits/s speed=0.0175x elapsed=0:03:55.01    \nframe=  250 fps=1.1 q=39.0 size=    1024KiB time=00:00:04.13 bitrate=2029.6kbits/s speed=0.0175x elapsed=0:03:55.53    \nframe=  251 fps=1.1 q=31.3 size=    1024KiB time=00:00:04.15 bitrate=2021.4kbits/s speed=0.0176x elapsed=0:03:56.04    \nframe=  253 fps=1.1 q=38.4 size=    1024KiB time=00:00:04.18 bitrate=2005.3kbits/s speed=0.0177x elapsed=0:03:56.56    \nframe=  254 fps=1.1 q=40.0 size=    1024KiB time=00:00:04.20 bitrate=1997.4kbits/s speed=0.0177x elapsed=0:03:57.09    \nframe=  255 fps=1.1 q=39.8 size=    1024KiB time=00:00:04.21 bitrate=1989.5kbits/s speed=0.0177x elapsed=0:03:57.61    \nframe=  257 fps=1.1 q=36.9 size=    1280KiB time=00:00:04.25 bitrate=2467.3kbits/s speed=0.0178x elapsed=0:03:58.13    \nframe=  258 fps=1.1 q=39.1 size=    1280KiB time=00:00:04.26 bitrate=2457.7kbits/s speed=0.0179x elapsed=0:03:58.63    \nframe=  258 fps=1.1 q=39.1 size=    1280KiB time=00:00:04.26 bitrate=2457.7kbits/s speed=0.0178x elapsed=0:03:59.15    \nframe=  259 fps=1.1 q=40.0 size=    1280KiB time=00:00:04.28 bitrate=2448.1kbits/s speed=0.0179x elapsed=0:03:59.67    \nframe=  261 fps=1.1 q=33.7 size=    1280KiB time=00:00:04.31 bitrate=2429.2kbits/s speed=0.018x elapsed=0:04:00.19    \nframe=  263 fps=1.1 q=40.2 size=    1280KiB time=00:00:04.35 bitrate=2410.6kbits/s speed=0.0181x elapsed=0:04:00.71    \nframe=  263 fps=1.1 q=40.2 size=    1280KiB time=00:00:04.35 bitrate=2410.6kbits/s speed=0.018x elapsed=0:04:01.22    \nframe=  264 fps=1.1 q=39.7 size=    1280KiB time=00:00:04.36 bitrate=2401.4kbits/s speed=0.0181x elapsed=0:04:01.73    \nframe=  266 fps=1.1 q=33.9 size=    1280KiB time=00:00:04.40 bitrate=2383.2kbits/s speed=0.0182x elapsed=0:04:02.25    \nframe=  268 fps=1.1 q=40.0 size=    1280KiB time=00:00:04.43 bitrate=2365.3kbits/s speed=0.0183x elapsed=0:04:02.76    \nframe=  268 fps=1.1 q=40.0 size=    1280KiB time=00:00:04.43 bitrate=2365.3kbits/s speed=0.0182x elapsed=0:04:03.28    \nframe=  269 fps=1.1 q=40.0 size=    1280KiB time=00:00:04.45 bitrate=2356.4kbits/s speed=0.0183x elapsed=0:04:03.80    \nframe=  270 fps=1.1 q=39.9 size=    1280KiB time=00:00:04.46 bitrate=2347.6kbits/s speed=0.0183x elapsed=0:04:04.32    \nframe=  272 fps=1.1 q=38.1 size=    1280KiB time=00:00:04.50 bitrate=2330.2kbits/s speed=0.0184x elapsed=0:04:04.83    \nframe=  273 fps=1.1 q=39.8 size=    1280KiB time=00:00:04.51 bitrate=2321.6kbits/s speed=0.0184x elapsed=0:04:05.34    \nframe=  275 fps=1.1 q=33.7 size=    1280KiB time=00:00:04.55 bitrate=2304.6kbits/s speed=0.0185x elapsed=0:04:05.86    \nframe=  276 fps=1.1 q=37.0 size=    1280KiB time=00:00:04.56 bitrate=2296.2kbits/s speed=0.0185x elapsed=0:04:06.37    \nframe=  277 fps=1.1 q=39.6 size=    1280KiB time=00:00:04.58 bitrate=2287.9kbits/s speed=0.0186x elapsed=0:04:06.89    \nframe=  278 fps=1.1 q=39.6 size=    1280KiB time=00:00:04.60 bitrate=2279.6kbits/s speed=0.0186x elapsed=0:04:07.42    \nframe=  279 fps=1.1 q=39.6 size=    1280KiB time=00:00:04.61 bitrate=2271.4kbits/s speed=0.0186x elapsed=0:04:07.94    \nframe=  280 fps=1.1 q=33.5 size=    1280KiB time=00:00:04.63 bitrate=2263.2kbits/s speed=0.0186x elapsed=0:04:08.46    \nframe=  281 fps=1.1 q=37.4 size=    1280KiB time=00:00:04.65 bitrate=2255.1kbits/s speed=0.0187x elapsed=0:04:08.96    \nframe=  282 fps=1.1 q=40.0 size=    1280KiB time=00:00:04.66 bitrate=2247.0kbits/s speed=0.0187x elapsed=0:04:09.48    \nframe=  283 fps=1.1 q=39.9 size=    1280KiB time=00:00:04.68 bitrate=2239.0kbits/s speed=0.0187x elapsed=0:04:10.00    \nframe=  285 fps=1.1 q=33.2 size=    1280KiB time=00:00:04.71 bitrate=2223.2kbits/s speed=0.0188x elapsed=0:04:10.51    \nframe=  287 fps=1.1 q=40.0 size=    1280KiB time=00:00:04.75 bitrate=2207.6kbits/s speed=0.0189x elapsed=0:04:11.03    \nframe=  287 fps=1.1 q=40.0 size=    1280KiB time=00:00:04.75 bitrate=2207.6kbits/s speed=0.0189x elapsed=0:04:11.55    \nframe=  288 fps=1.1 q=40.0 size=    1280KiB time=00:00:04.76 bitrate=2199.9kbits/s speed=0.0189x elapsed=0:04:12.06    \nframe=  290 fps=1.1 q=33.8 size=    1280KiB time=00:00:04.80 bitrate=2184.6kbits/s speed=0.019x elapsed=0:04:12.58    \nframe=  292 fps=1.2 q=39.9 size=    1280KiB time=00:00:04.83 bitrate=2169.5kbits/s speed=0.0191x elapsed=0:04:13.09    \nframe=  293 fps=1.2 q=39.9 size=    1280KiB time=00:00:04.85 bitrate=2162.1kbits/s speed=0.0191x elapsed=0:04:13.61    \nframe=  294 fps=1.2 q=39.9 size=    1280KiB time=00:00:04.86 bitrate=2154.7kbits/s speed=0.0192x elapsed=0:04:14.12    \nframe=  296 fps=1.2 q=39.1 size=    1280KiB time=00:00:04.90 bitrate=2140.0kbits/s speed=0.0192x elapsed=0:04:14.64    \nframe=  297 fps=1.2 q=39.9 size=    1280KiB time=00:00:04.91 bitrate=2132.8kbits/s speed=0.0193x elapsed=0:04:15.15    \nframe=  297 fps=1.2 q=39.9 size=    1280KiB time=00:00:04.91 bitrate=2132.8kbits/s speed=0.0192x elapsed=0:04:15.66    \nframe=  298 fps=1.2 q=40.0 size=    1280KiB time=00:00:04.93 bitrate=2125.6kbits/s speed=0.0193x elapsed=0:04:16.18    \nframe=  300 fps=1.2 q=33.8 size=    1280KiB time=00:00:04.96 bitrate=2111.3kbits/s speed=0.0193x elapsed=0:04:16.70    \nframe=  301 fps=1.2 q=39.8 size=    1280KiB time=00:00:04.98 bitrate=2104.2kbits/s speed=0.0194x elapsed=0:04:17.22    \nframe=  302 fps=1.2 q=41.1 size=    1280KiB time=00:00:05.00 bitrate=2097.2kbits/s speed=0.0194x elapsed=0:04:17.74    \nframe=  303 fps=1.2 q=41.0 size=    1280KiB time=00:00:05.01 bitrate=2090.3kbits/s speed=0.0194x elapsed=0:04:18.26    \nframe=  305 fps=1.2 q=33.4 size=    1280KiB time=00:00:05.05 bitrate=2076.5kbits/s speed=0.0195x elapsed=0:04:18.77    \nframe=  307 fps=1.2 q=40.9 size=    1280KiB time=00:00:05.08 bitrate=2062.8kbits/s speed=0.0196x elapsed=0:04:19.28    \nframe=  308 fps=1.2 q=40.9 size=    1280KiB time=00:00:05.10 bitrate=2056.1kbits/s speed=0.0196x elapsed=0:04:19.80    \nframe=  308 fps=1.2 q=40.9 size=    1280KiB time=00:00:05.10 bitrate=2056.1kbits/s speed=0.0196x elapsed=0:04:20.31    \nframe=  310 fps=1.2 q=33.4 size=    1280KiB time=00:00:05.13 bitrate=2042.7kbits/s speed=0.0197x elapsed=0:04:20.83    \nframe=  310 fps=1.2 q=33.4 size=    1280KiB time=00:00:05.13 bitrate=2042.7kbits/s speed=0.0196x elapsed=0:04:21.35    \nframe=  312 fps=1.2 q=41.0 size=    1536KiB time=00:00:05.16 bitrate=2435.5kbits/s speed=0.0197x elapsed=0:04:21.86    \nframe=  313 fps=1.2 q=33.3 size=    1536KiB time=00:00:05.18 bitrate=2427.6kbits/s speed=0.0198x elapsed=0:04:22.38    \nframe=  314 fps=1.2 q=39.2 size=    1536KiB time=00:00:05.20 bitrate=2419.9kbits/s speed=0.0198x elapsed=0:04:22.89    \nframe=  315 fps=1.2 q=40.9 size=    1536KiB time=00:00:05.21 bitrate=2412.1kbits/s speed=0.0198x elapsed=0:04:23.41    \nframe=  316 fps=1.2 q=40.9 size=    1536KiB time=00:00:05.23 bitrate=2404.4kbits/s speed=0.0198x elapsed=0:04:23.92    \nframe=  318 fps=1.2 q=33.5 size=    1536KiB time=00:00:05.26 bitrate=2389.2kbits/s speed=0.0199x elapsed=0:04:24.44    \nframe=  319 fps=1.2 q=34.8 size=    1536KiB time=00:00:05.28 bitrate=2381.7kbits/s speed=0.0199x elapsed=0:04:24.96    \nframe=  320 fps=1.2 q=41.0 size=    1536KiB time=00:00:05.30 bitrate=2374.2kbits/s speed=0.02x elapsed=0:04:25.48    \nframe=  321 fps=1.2 q=41.0 size=    1536KiB time=00:00:05.31 bitrate=2366.8kbits/s speed=0.02x elapsed=0:04:25.99    \nframe=  322 fps=1.2 q=40.9 size=    1536KiB time=00:00:05.33 bitrate=2359.4kbits/s speed=0.02x elapsed=0:04:26.50    \nframe=  323 fps=1.2 q=33.6 size=    1536KiB time=00:00:05.35 bitrate=2352.0kbits/s speed=0.02x elapsed=0:04:27.02    \nframe=  325 fps=1.2 q=41.0 size=    1536KiB time=00:00:05.38 bitrate=2337.4kbits/s speed=0.0201x elapsed=0:04:27.53    \nframe=  326 fps=1.2 q=41.1 size=    1536KiB time=00:00:05.40 bitrate=2330.2kbits/s speed=0.0201x elapsed=0:04:28.04    \nframe=  327 fps=1.2 q=41.1 size=    1536KiB time=00:00:05.41 bitrate=2323.1kbits/s speed=0.0202x elapsed=0:04:28.55    \nframe=  329 fps=1.2 q=36.8 size=    1536KiB time=00:00:05.45 bitrate=2308.9kbits/s speed=0.0203x elapsed=0:04:29.09    \nframe=  330 fps=1.2 q=41.1 size=    1536KiB time=00:00:05.46 bitrate=2301.8kbits/s speed=0.0203x elapsed=0:04:29.59    \nframe=  331 fps=1.2 q=41.3 size=    1536KiB time=00:00:05.48 bitrate=2294.8kbits/s speed=0.0203x elapsed=0:04:30.11    \nframe=  332 fps=1.2 q=41.1 size=    1536KiB time=00:00:05.50 bitrate=2287.9kbits/s speed=0.0203x elapsed=0:04:30.63    \nframe=  334 fps=1.2 q=40.1 size=    1536KiB time=00:00:05.53 bitrate=2274.1kbits/s speed=0.0204x elapsed=0:04:31.15    \nframe=  335 fps=1.2 q=41.2 size=    1536KiB time=00:00:05.55 bitrate=2267.3kbits/s speed=0.0204x elapsed=0:04:31.65    \nframe=  337 fps=1.2 q=41.0 size=    1536KiB time=00:00:05.58 bitrate=2253.7kbits/s speed=0.0205x elapsed=0:04:32.17    \nframe=  338 fps=1.2 q=33.7 size=    1536KiB time=00:00:05.60 bitrate=2247.0kbits/s speed=0.0205x elapsed=0:04:32.69    \nframe=  340 fps=1.2 q=41.1 size=    1536KiB time=00:00:05.63 bitrate=2233.7kbits/s speed=0.0206x elapsed=0:04:33.21    \nframe=  341 fps=1.2 q=41.2 size=    1536KiB time=00:00:05.65 bitrate=2227.1kbits/s speed=0.0206x elapsed=0:04:33.71    \nframe=  342 fps=1.2 q=41.0 size=    1536KiB time=00:00:05.66 bitrate=2220.6kbits/s speed=0.0207x elapsed=0:04:34.23    \nframe=  344 fps=1.3 q=40.0 size=    1536KiB time=00:00:05.70 bitrate=2207.6kbits/s speed=0.0207x elapsed=0:04:34.75    \nframe=  345 fps=1.3 q=41.2 size=    1536KiB time=00:00:05.71 bitrate=2201.2kbits/s speed=0.0208x elapsed=0:04:35.27    \nframe=  346 fps=1.3 q=41.2 size=    1536KiB time=00:00:05.73 bitrate=2194.8kbits/s speed=0.0208x elapsed=0:04:35.79    \nframe=  348 fps=1.3 q=33.7 size=    1536KiB time=00:00:05.76 bitrate=2182.1kbits/s speed=0.0209x elapsed=0:04:36.30    \nframe=  349 fps=1.3 q=40.3 size=    1536KiB time=00:00:05.78 bitrate=2175.8kbits/s speed=0.0209x elapsed=0:04:36.82    \nframe=  350 fps=1.3 q=41.0 size=    1792KiB time=00:00:05.80 bitrate=2531.1kbits/s speed=0.0209x elapsed=0:04:37.32    \nframe=  351 fps=1.3 q=40.9 size=    1792KiB time=00:00:05.81 bitrate=2523.9kbits/s speed=0.0209x elapsed=0:04:37.85    \nframe=  354 fps=1.3 q=38.8 size=    1792KiB time=00:00:05.86 bitrate=2502.3kbits/s speed=0.0211x elapsed=0:04:38.38    \nframe=  355 fps=1.3 q=41.0 size=    1792KiB time=00:00:05.88 bitrate=2495.3kbits/s speed=0.0211x elapsed=0:04:38.88    \nframe=  356 fps=1.3 q=41.0 size=    1792KiB time=00:00:05.90 bitrate=2488.2kbits/s speed=0.0211x elapsed=0:04:39.40    \nframe=  358 fps=1.3 q=39.0 size=    1792KiB time=00:00:05.93 bitrate=2474.2kbits/s speed=0.0212x elapsed=0:04:39.92    \nframe=  360 fps=1.3 q=41.2 size=    1792KiB time=00:00:05.96 bitrate=2460.4kbits/s speed=0.0213x elapsed=0:04:40.43    \nframe=  361 fps=1.3 q=41.0 size=    1792KiB time=00:00:05.98 bitrate=2453.6kbits/s speed=0.0213x elapsed=0:04:40.95    \nframe=  363 fps=1.3 q=39.1 size=    1792KiB time=00:00:06.01 bitrate=2440.0kbits/s speed=0.0214x elapsed=0:04:41.46    \nframe=  364 fps=1.3 q=41.1 size=    1792KiB time=00:00:06.03 bitrate=2433.2kbits/s speed=0.0214x elapsed=0:04:41.98    \nframe=  366 fps=1.3 q=41.0 size=    1792KiB time=00:00:06.06 bitrate=2419.8kbits/s speed=0.0215x elapsed=0:04:42.50    \nframe=  367 fps=1.3 q=33.7 size=    1792KiB time=00:00:06.08 bitrate=2413.2kbits/s speed=0.0215x elapsed=0:04:43.01    \nframe=  369 fps=1.3 q=41.1 size=    1792KiB time=00:00:06.11 bitrate=2400.1kbits/s speed=0.0216x elapsed=0:04:43.53    \nframe=  369 fps=1.3 q=41.1 size=    1792KiB time=00:00:06.11 bitrate=2400.1kbits/s speed=0.0215x elapsed=0:04:44.05    \nframe=  371 fps=1.3 q=33.7 size=    1792KiB time=00:00:06.15 bitrate=2387.1kbits/s speed=0.0216x elapsed=0:04:44.56    \nframe=  373 fps=1.3 q=40.9 size=    1792KiB time=00:00:06.18 bitrate=2374.2kbits/s speed=0.0217x elapsed=0:04:45.08    \nframe=  374 fps=1.3 q=41.0 size=    1792KiB time=00:00:06.20 bitrate=2367.8kbits/s speed=0.0217x elapsed=0:04:45.59    \nframe=  376 fps=1.3 q=33.9 size=    1792KiB time=00:00:06.23 bitrate=2355.1kbits/s speed=0.0218x elapsed=0:04:46.10    \nframe=  376 fps=1.3 q=33.9 size=    1792KiB time=00:00:06.23 bitrate=2355.1kbits/s speed=0.0217x elapsed=0:04:46.63    \nframe=  378 fps=1.3 q=40.9 size=    1792KiB time=00:00:06.26 bitrate=2342.6kbits/s speed=0.0218x elapsed=0:04:47.14    \nframe=  379 fps=1.3 q=33.5 size=    1792KiB time=00:00:06.28 bitrate=2336.4kbits/s speed=0.0218x elapsed=0:04:47.66    \nframe=  381 fps=1.3 q=41.1 size=    1792KiB time=00:00:06.31 bitrate=2324.1kbits/s speed=0.0219x elapsed=0:04:48.18    \nframe=  382 fps=1.3 q=41.1 size=    1792KiB time=00:00:06.33 bitrate=2318.0kbits/s speed=0.0219x elapsed=0:04:48.69    \nframe=  383 fps=1.3 q=41.0 size=    1792KiB time=00:00:06.35 bitrate=2311.9kbits/s speed=0.022x elapsed=0:04:49.21    \nframe=  385 fps=1.3 q=34.9 size=    1792KiB time=00:00:06.38 bitrate=2299.8kbits/s speed=0.022x elapsed=0:04:49.72    \nframe=  386 fps=1.3 q=41.1 size=    1792KiB time=00:00:06.40 bitrate=2293.8kbits/s speed=0.0221x elapsed=0:04:50.24    \nframe=  387 fps=1.3 q=41.0 size=    1792KiB time=00:00:06.41 bitrate=2287.9kbits/s speed=0.0221x elapsed=0:04:50.77    \nframe=  388 fps=1.3 q=41.1 size=    1792KiB time=00:00:06.43 bitrate=2281.9kbits/s speed=0.0221x elapsed=0:04:51.28    \nframe=  389 fps=1.3 q=33.7 size=    1792KiB time=00:00:06.45 bitrate=2276.0kbits/s speed=0.0221x elapsed=0:04:51.79    \nframe=  391 fps=1.3 q=41.0 size=    1792KiB time=00:00:06.48 bitrate=2264.3kbits/s speed=0.0222x elapsed=0:04:52.31    \nframe=  392 fps=1.3 q=41.0 size=    1792KiB time=00:00:06.50 bitrate=2258.5kbits/s speed=0.0222x elapsed=0:04:52.83    \nframe=  393 fps=1.3 q=41.0 size=    1792KiB time=00:00:06.51 bitrate=2252.7kbits/s speed=0.0222x elapsed=0:04:53.34    \nframe=  395 fps=1.3 q=37.3 size=    1792KiB time=00:00:06.55 bitrate=2241.3kbits/s speed=0.0223x elapsed=0:04:53.86    \nframe=  396 fps=1.3 q=41.0 size=    1792KiB time=00:00:06.56 bitrate=2235.6kbits/s speed=0.0223x elapsed=0:04:54.38    \nframe=  397 fps=1.3 q=41.1 size=    1792KiB time=00:00:06.58 bitrate=2229.9kbits/s speed=0.0223x elapsed=0:04:54.88    \nframe=  399 fps=1.4 q=33.6 size=    1792KiB time=00:00:06.61 bitrate=2218.7kbits/s speed=0.0224x elapsed=0:04:55.41    \nframe=  401 fps=1.4 q=41.0 size=    1792KiB time=00:00:06.65 bitrate=2207.6kbits/s speed=0.0225x elapsed=0:04:55.92    \nframe=  402 fps=1.4 q=41.1 size=    1792KiB time=00:00:06.66 bitrate=2202.1kbits/s speed=0.0225x elapsed=0:04:56.45    \nframe=  403 fps=1.4 q=41.0 size=    1792KiB time=00:00:06.68 bitrate=2196.6kbits/s speed=0.0225x elapsed=0:04:56.98    \nframe=  405 fps=1.4 q=40.1 size=    2048KiB time=00:00:06.71 bitrate=2497.9kbits/s speed=0.0226x elapsed=0:04:57.49    \nframe=  407 fps=1.4 q=41.1 size=    2048KiB time=00:00:06.75 bitrate=2485.6kbits/s speed=0.0226x elapsed=0:04:58.02    \nframe=  408 fps=1.4 q=41.1 size=    2048KiB time=00:00:06.76 bitrate=2479.4kbits/s speed=0.0227x elapsed=0:04:58.54    \nframe=  409 fps=1.4 q=33.6 size=    2048KiB time=00:00:06.78 bitrate=2473.4kbits/s speed=0.0227x elapsed=0:04:59.04    \nframe=  411 fps=1.4 q=41.1 size=    2048KiB time=00:00:06.81 bitrate=2461.3kbits/s speed=0.0228x elapsed=0:04:59.56    \nframe=  413 fps=1.4 q=33.4 size=    2048KiB time=00:00:06.85 bitrate=2449.3kbits/s speed=0.0228x elapsed=0:05:00.08    \nframe=  414 fps=1.4 q=39.0 size=    2048KiB time=00:00:06.86 bitrate=2443.3kbits/s speed=0.0228x elapsed=0:05:00.59    \nframe=  415 fps=1.4 q=41.1 size=    2048KiB time=00:00:06.88 bitrate=2437.4kbits/s speed=0.0229x elapsed=0:05:01.11    \nframe=  416 fps=1.4 q=41.1 size=    2048KiB time=00:00:06.90 bitrate=2431.5kbits/s speed=0.0229x elapsed=0:05:01.63    \nframe=  418 fps=1.4 q=33.4 size=    2048KiB time=00:00:06.93 bitrate=2419.8kbits/s speed=0.0229x elapsed=0:05:02.15    \nframe=  419 fps=1.4 q=39.1 size=    2048KiB time=00:00:06.95 bitrate=2414.0kbits/s speed=0.023x elapsed=0:05:02.66    \nframe=  421 fps=1.4 q=41.2 size=    2048KiB time=00:00:06.98 bitrate=2402.5kbits/s speed=0.023x elapsed=0:05:03.17    \nframe=  422 fps=1.4 q=41.0 size=    2048KiB time=00:00:07.00 bitrate=2396.8kbits/s speed=0.023x elapsed=0:05:03.69    \nframe=  424 fps=1.4 q=38.8 size=    2048KiB time=00:00:07.03 bitrate=2385.4kbits/s speed=0.0231x elapsed=0:05:04.20    \nframe=  425 fps=1.4 q=41.0 size=    2048KiB time=00:00:07.05 bitrate=2379.8kbits/s speed=0.0231x elapsed=0:05:04.73    \nframe=  426 fps=1.4 q=40.9 size=    2048KiB time=00:00:07.06 bitrate=2374.2kbits/s speed=0.0232x elapsed=0:05:05.24    \nframe=  427 fps=1.4 q=40.9 size=    2048KiB time=00:00:07.08 bitrate=2368.6kbits/s speed=0.0232x elapsed=0:05:05.77    \nframe=  429 fps=1.4 q=37.4 size=    2048KiB time=00:00:07.11 bitrate=2357.5kbits/s speed=0.0232x elapsed=0:05:06.28    \nframe=  430 fps=1.4 q=41.1 size=    2048KiB time=00:00:07.13 bitrate=2352.0kbits/s speed=0.0232x elapsed=0:05:06.81    \nframe=  432 fps=1.4 q=41.0 size=    2048KiB time=00:00:07.16 bitrate=2341.1kbits/s speed=0.0233x elapsed=0:05:07.32    \nframe=  434 fps=1.4 q=38.5 size=    2048KiB time=00:00:07.20 bitrate=2330.2kbits/s speed=0.0234x elapsed=0:05:07.85    \nframe=  436 fps=1.4 q=40.1 size=    2048KiB time=00:00:07.23 bitrate=2319.5kbits/s speed=0.0235x elapsed=0:05:08.38    \nframe=  437 fps=1.4 q=33.6 size=    2048KiB time=00:00:07.25 bitrate=2314.1kbits/s speed=0.0235x elapsed=0:05:08.89    \nframe=  438 fps=1.4 q=39.1 size=    2048KiB time=00:00:07.26 bitrate=2308.8kbits/s speed=0.0235x elapsed=0:05:09.40    \nframe=  439 fps=1.4 q=40.1 size=    2048KiB time=00:00:07.28 bitrate=2303.6kbits/s speed=0.0235x elapsed=0:05:09.92    \nframe=  440 fps=1.4 q=33.4 size=    2048KiB time=00:00:07.30 bitrate=2298.3kbits/s speed=0.0235x elapsed=0:05:10.44    \nframe=  442 fps=1.4 q=40.0 size=    2048KiB time=00:00:07.33 bitrate=2287.9kbits/s speed=0.0236x elapsed=0:05:10.96    \nframe=  443 fps=1.4 q=40.0 size=    2048KiB time=00:00:07.35 bitrate=2282.7kbits/s speed=0.0236x elapsed=0:05:11.48    \nframe=  444 fps=1.4 q=40.2 size=    2048KiB time=00:00:07.36 bitrate=2277.5kbits/s speed=0.0236x elapsed=0:05:11.99    \nframe=  446 fps=1.4 q=34.7 size=    2048KiB time=00:00:07.40 bitrate=2267.2kbits/s speed=0.0237x elapsed=0:05:12.50    \nframe=  448 fps=1.4 q=40.2 size=    2048KiB time=00:00:07.43 bitrate=2257.1kbits/s speed=0.0237x elapsed=0:05:13.04    \nframe=  448 fps=1.4 q=40.2 size=    2048KiB time=00:00:07.43 bitrate=2257.1kbits/s speed=0.0237x elapsed=0:05:13.54    \nframe=  450 fps=1.4 q=33.4 size=    2048KiB time=00:00:07.46 bitrate=2247.0kbits/s speed=0.0238x elapsed=0:05:14.06    \nframe=  452 fps=1.4 q=40.2 size=    2048KiB time=00:00:07.50 bitrate=2237.0kbits/s speed=0.0238x elapsed=0:05:14.58    \nframe=  453 fps=1.4 q=40.1 size=    2048KiB time=00:00:07.51 bitrate=2232.0kbits/s speed=0.0239x elapsed=0:05:15.09    \nframe=  454 fps=1.4 q=40.7 size=    2048KiB time=00:00:07.53 bitrate=2227.1kbits/s speed=0.0239x elapsed=0:05:15.61    \nframe=  456 fps=1.4 q=35.6 size=    2048KiB time=00:00:07.56 bitrate=2217.3kbits/s speed=0.0239x elapsed=0:05:16.12    \nframe=  457 fps=1.4 q=40.4 size=    2048KiB time=00:00:07.58 bitrate=2212.4kbits/s speed=0.0239x elapsed=0:05:16.64    \nframe=  458 fps=1.4 q=40.2 size=    2048KiB time=00:00:07.60 bitrate=2207.6kbits/s speed=0.024x elapsed=0:05:17.18    \nframe=  460 fps=1.4 q=33.7 size=    2048KiB time=00:00:07.63 bitrate=2197.9kbits/s speed=0.024x elapsed=0:05:17.69    \nframe=  462 fps=1.5 q=40.2 size=    2304KiB time=00:00:07.66 bitrate=2461.9kbits/s speed=0.0241x elapsed=0:05:18.21    \nframe=  463 fps=1.5 q=40.4 size=    2304KiB time=00:00:07.68 bitrate=2456.6kbits/s speed=0.0241x elapsed=0:05:18.74    \nframe=  465 fps=1.5 q=34.0 size=    2304KiB time=00:00:07.71 bitrate=2446.0kbits/s speed=0.0242x elapsed=0:05:19.25    \nframe=  466 fps=1.5 q=39.5 size=    2304KiB time=00:00:07.73 bitrate=2440.7kbits/s speed=0.0242x elapsed=0:05:19.76    \nframe=  467 fps=1.5 q=40.4 size=    2304KiB time=00:00:07.75 bitrate=2435.4kbits/s speed=0.0242x elapsed=0:05:20.28    \nframe=  468 fps=1.5 q=39.4 size=    2304KiB time=00:00:07.76 bitrate=2430.2kbits/s speed=0.0242x elapsed=0:05:20.80    \nframe=  470 fps=1.5 q=33.5 size=    2304KiB time=00:00:07.80 bitrate=2419.8kbits/s speed=0.0243x elapsed=0:05:21.31    \nframe=  472 fps=1.5 q=39.1 size=    2304KiB time=00:00:07.83 bitrate=2409.5kbits/s speed=0.0243x elapsed=0:05:21.82    \nframe=  473 fps=1.5 q=39.9 size=    2304KiB time=00:00:07.85 bitrate=2404.4kbits/s speed=0.0244x elapsed=0:05:22.34    \nframe=  474 fps=1.5 q=40.1 size=    2304KiB time=00:00:07.86 bitrate=2399.3kbits/s speed=0.0244x elapsed=0:05:22.86    \nframe=  476 fps=1.5 q=37.7 size=    2304KiB time=00:00:07.90 bitrate=2389.2kbits/s speed=0.0244x elapsed=0:05:23.38    \nframe=  477 fps=1.5 q=39.9 size=    2304KiB time=00:00:07.91 bitrate=2384.2kbits/s speed=0.0244x elapsed=0:05:23.89    \nframe=  479 fps=1.5 q=39.3 size=    2304KiB time=00:00:07.95 bitrate=2374.2kbits/s speed=0.0245x elapsed=0:05:24.41    \nframe=  480 fps=1.5 q=40.4 size=    2304KiB time=00:00:07.96 bitrate=2369.2kbits/s speed=0.0245x elapsed=0:05:24.93    \nframe=  482 fps=1.5 q=40.1 size=    2304KiB time=00:00:08.00 bitrate=2359.3kbits/s speed=0.0246x elapsed=0:05:25.44    \nframe=  484 fps=1.5 q=39.3 size=    2304KiB time=00:00:08.03 bitrate=2349.6kbits/s speed=0.0246x elapsed=0:05:25.95    \nframe=  485 fps=1.5 q=40.3 size=    2304KiB time=00:00:08.05 bitrate=2344.7kbits/s speed=0.0247x elapsed=0:05:26.46    \nframe=  486 fps=1.5 q=40.2 size=    2304KiB time=00:00:08.06 bitrate=2339.8kbits/s speed=0.0247x elapsed=0:05:26.99    \nframe=  488 fps=1.5 q=33.5 size=    2304KiB time=00:00:08.10 bitrate=2330.2kbits/s speed=0.0247x elapsed=0:05:27.49    \nframe=  490 fps=1.5 q=40.2 size=    2304KiB time=00:00:08.13 bitrate=2320.7kbits/s speed=0.0248x elapsed=0:05:28.03    \nframe=  491 fps=1.5 q=40.1 size=    2304KiB time=00:00:08.15 bitrate=2315.9kbits/s speed=0.0248x elapsed=0:05:28.55    \nframe=  492 fps=1.5 q=40.0 size=    2304KiB time=00:00:08.16 bitrate=2311.2kbits/s speed=0.0248x elapsed=0:05:29.07    \nframe=  494 fps=1.5 q=39.2 size=    2304KiB time=00:00:08.20 bitrate=2301.8kbits/s speed=0.0249x elapsed=0:05:29.60    \nframe=  494 fps=1.5 q=39.2 size=    2304KiB time=00:00:08.20 bitrate=2301.8kbits/s speed=0.0248x elapsed=0:05:30.11    \nframe=  495 fps=1.5 q=41.0 size=    2304KiB time=00:00:08.21 bitrate=2297.1kbits/s speed=0.0249x elapsed=0:05:30.63    \nframe=  496 fps=1.5 q=41.1 size=    2304KiB time=00:00:08.23 bitrate=2292.5kbits/s speed=0.0249x elapsed=0:05:31.15    \nframe=  497 fps=1.5 q=33.2 size=    2304KiB time=00:00:08.25 bitrate=2287.8kbits/s speed=0.0249x elapsed=0:05:31.66    \nframe=  498 fps=1.5 q=39.3 size=    2560KiB time=00:00:08.26 bitrate=2536.9kbits/s speed=0.0249x elapsed=0:05:32.17    \nframe=  500 fps=1.5 q=41.1 size=    2560KiB time=00:00:08.30 bitrate=2526.7kbits/s speed=0.0249x elapsed=0:05:32.69    \nframe=  500 fps=1.5 q=41.1 size=    2560KiB time=00:00:08.30 bitrate=2526.7kbits/s speed=0.0249x elapsed=0:05:33.23    \nframe=  501 fps=1.5 q=41.1 size=    2560KiB time=00:00:08.31 bitrate=2521.7kbits/s speed=0.0249x elapsed=0:05:33.75    \nframe=  502 fps=1.5 q=33.7 size=    2560KiB time=00:00:08.33 bitrate=2516.6kbits/s speed=0.0249x elapsed=0:05:34.28    \nframe=  502 fps=1.5 q=33.7 size=    2560KiB time=00:00:08.33 bitrate=2516.6kbits/s speed=0.0249x elapsed=0:05:34.80    \nframe=  502 fps=1.5 q=33.7 size=    2560KiB time=00:00:08.33 bitrate=2516.6kbits/s speed=0.0249x elapsed=0:05:35.33    \nframe=  502 fps=1.5 q=33.7 size=    2560KiB time=00:00:08.33 bitrate=2516.6kbits/s speed=0.0248x elapsed=0:05:35.85    \nframe=  503 fps=1.5 q=38.7 size=    2560KiB time=00:00:08.35 bitrate=2511.6kbits/s speed=0.0248x elapsed=0:05:36.38    \nframe=  504 fps=1.5 q=41.1 size=    2560KiB time=00:00:08.36 bitrate=2506.6kbits/s speed=0.0248x elapsed=0:05:36.92    \nframe=  505 fps=1.5 q=41.0 size=    2560KiB time=00:00:08.38 bitrate=2501.6kbits/s speed=0.0248x elapsed=0:05:37.43    \nframe=  505 fps=1.5 q=41.0 size=    2560KiB time=00:00:08.38 bitrate=2501.6kbits/s speed=0.0248x elapsed=0:05:37.95    \nframe=  506 fps=1.5 q=41.0 size=    2560KiB time=00:00:08.40 bitrate=2496.7kbits/s speed=0.0248x elapsed=0:05:38.47    \nframe=  506 fps=1.5 q=41.0 size=    2560KiB time=00:00:08.40 bitrate=2496.7kbits/s speed=0.0248x elapsed=0:05:38.98    \nframe=  507 fps=1.5 q=33.8 size=    2560KiB time=00:00:08.41 bitrate=2491.7kbits/s speed=0.0248x elapsed=0:05:39.51    \nframe=  508 fps=1.5 q=36.0 size=    2560KiB time=00:00:08.43 bitrate=2486.8kbits/s speed=0.0248x elapsed=0:05:40.04    \nframe=  509 fps=1.5 q=41.1 size=    2560KiB time=00:00:08.45 bitrate=2481.9kbits/s speed=0.0248x elapsed=0:05:40.57    \nframe=  509 fps=1.5 q=41.1 size=    2560KiB time=00:00:08.45 bitrate=2481.9kbits/s speed=0.0248x elapsed=0:05:41.09    \nframe=  511 fps=1.5 q=41.1 size=    2560KiB time=00:00:08.48 bitrate=2472.1kbits/s speed=0.0248x elapsed=0:05:41.62    \nframe=  511 fps=1.5 q=41.1 size=    2560KiB time=00:00:08.48 bitrate=2472.1kbits/s speed=0.0248x elapsed=0:05:42.14    \nframe=  511 fps=1.5 q=41.1 size=    2560KiB time=00:00:08.48 bitrate=2472.1kbits/s speed=0.0248x elapsed=0:05:42.65    \nframe=  513 fps=1.5 q=40.1 size=    2560KiB time=00:00:08.51 bitrate=2462.5kbits/s speed=0.0248x elapsed=0:05:43.17    \nframe=  513 fps=1.5 q=40.1 size=    2560KiB time=00:00:08.51 bitrate=2462.5kbits/s speed=0.0248x elapsed=0:05:43.71    \nframe=  514 fps=1.5 q=41.1 size=    2560KiB time=00:00:08.53 bitrate=2457.6kbits/s speed=0.0248x elapsed=0:05:44.26    \nframe=  515 fps=1.5 q=41.0 size=    2560KiB time=00:00:08.55 bitrate=2452.9kbits/s speed=0.0248x elapsed=0:05:44.80    \nframe=  516 fps=1.5 q=41.0 size=    2560KiB time=00:00:08.56 bitrate=2448.1kbits/s speed=0.0248x elapsed=0:05:45.35    \nframe=  516 fps=1.5 q=41.0 size=    2560KiB time=00:00:08.56 bitrate=2448.1kbits/s speed=0.0248x elapsed=0:05:45.91    \nframe=  517 fps=1.5 q=33.7 size=    2560KiB time=00:00:08.58 bitrate=2443.3kbits/s speed=0.0248x elapsed=0:05:46.45    \nframe=  517 fps=1.5 q=33.7 size=    2560KiB time=00:00:08.58 bitrate=2443.3kbits/s speed=0.0247x elapsed=0:05:47.02    \nframe=  518 fps=1.5 q=40.4 size=    2560KiB time=00:00:08.58 bitrate=2443.3kbits/s speed=0.0247x elapsed=0:05:47.55    \nframe=  519 fps=1.5 q=41.1 size=    2560KiB time=00:00:08.61 bitrate=2433.9kbits/s speed=0.0248x elapsed=0:05:48.07    \nframe=  519 fps=1.5 q=41.1 size=    2560KiB time=00:00:08.61 bitrate=2433.9kbits/s speed=0.0247x elapsed=0:05:48.63    \nframe=  522 fps=1.5 q=33.8 size=    2560KiB time=00:00:08.66 bitrate=2419.8kbits/s speed=0.0248x elapsed=0:05:49.17    \nframe=  522 fps=1.5 q=33.8 size=    2560KiB time=00:00:08.66 bitrate=2419.8kbits/s speed=0.0248x elapsed=0:05:49.72    \nframe=  522 fps=1.5 q=33.8 size=    2560KiB time=00:00:08.66 bitrate=2419.8kbits/s speed=0.0247x elapsed=0:05:50.28    \nframe=  523 fps=1.5 q=39.0 size=    2560KiB time=00:00:08.68 bitrate=2415.2kbits/s speed=0.0248x elapsed=0:05:50.82    \nframe=  523 fps=1.5 q=39.0 size=    2560KiB time=00:00:08.68 bitrate=2415.2kbits/s speed=0.0247x elapsed=0:05:51.37    \nframe=  525 fps=1.5 q=41.0 size=    2560KiB time=00:00:08.70 bitrate=2410.6kbits/s speed=0.0247x elapsed=0:05:51.94    \nframe=  525 fps=1.5 q=41.0 size=    2560KiB time=00:00:08.71 bitrate=2406.0kbits/s speed=0.0247x elapsed=0:05:52.47    \nframe=  525 fps=1.5 q=41.0 size=    2560KiB time=00:00:08.71 bitrate=2406.0kbits/s speed=0.0247x elapsed=0:05:53.02    \nframe=  526 fps=1.5 q=33.8 size=    2560KiB time=00:00:08.73 bitrate=2401.4kbits/s speed=0.0247x elapsed=0:05:53.55    \nframe=  528 fps=1.5 q=41.0 size=    2560KiB time=00:00:08.75 bitrate=2396.8kbits/s speed=0.0247x elapsed=0:05:54.12    \nframe=  529 fps=1.5 q=41.2 size=    2560KiB time=00:00:08.78 bitrate=2387.7kbits/s speed=0.0248x elapsed=0:05:54.66    \nframe=  529 fps=1.5 q=41.2 size=    2560KiB time=00:00:08.78 bitrate=2387.7kbits/s speed=0.0247x elapsed=0:05:55.20    \nframe=  530 fps=1.5 q=41.1 size=    2560KiB time=00:00:08.80 bitrate=2383.2kbits/s speed=0.0247x elapsed=0:05:55.73    \nframe=  530 fps=1.5 q=41.1 size=    2560KiB time=00:00:08.80 bitrate=2383.2kbits/s speed=0.0247x elapsed=0:05:56.28    \nframe=  530 fps=1.5 q=41.1 size=    2560KiB time=00:00:08.80 bitrate=2383.2kbits/s speed=0.0247x elapsed=0:05:56.79    \nframe=  532 fps=1.5 q=39.0 size=    2560KiB time=00:00:08.83 bitrate=2374.2kbits/s speed=0.0247x elapsed=0:05:57.32    \nframe=  533 fps=1.5 q=41.1 size=    2560KiB time=00:00:08.85 bitrate=2369.7kbits/s speed=0.0247x elapsed=0:05:57.87    \nframe=  533 fps=1.5 q=41.1 size=    2560KiB time=00:00:08.85 bitrate=2369.7kbits/s speed=0.0247x elapsed=0:05:58.43    \nframe=  534 fps=1.5 q=41.1 size=    2560KiB time=00:00:08.86 bitrate=2365.2kbits/s speed=0.0247x elapsed=0:05:58.95    \nframe=  535 fps=1.5 q=33.6 size=    2560KiB time=00:00:08.88 bitrate=2360.8kbits/s speed=0.0247x elapsed=0:05:59.47    \nframe=  536 fps=1.5 q=39.1 size=    2560KiB time=00:00:08.90 bitrate=2356.4kbits/s speed=0.0247x elapsed=0:06:00.02    \nframe=  538 fps=1.5 q=41.1 size=    2560KiB time=00:00:08.93 bitrate=2347.6kbits/s speed=0.0248x elapsed=0:06:00.59    \nframe=  539 fps=1.5 q=41.1 size=    2560KiB time=00:00:08.95 bitrate=2343.2kbits/s speed=0.0248x elapsed=0:06:01.12    \nframe=  539 fps=1.5 q=41.1 size=    2560KiB time=00:00:08.95 bitrate=2343.2kbits/s speed=0.0247x elapsed=0:06:01.63    \nframe=  539 fps=1.5 q=41.1 size=    2560KiB time=00:00:08.95 bitrate=2343.2kbits/s speed=0.0247x elapsed=0:06:02.17    \nframe=  539 fps=1.5 q=41.1 size=    2560KiB time=00:00:08.95 bitrate=2343.2kbits/s speed=0.0247x elapsed=0:06:02.69    \nframe=  540 fps=1.5 q=33.7 size=    2560KiB time=00:00:08.96 bitrate=2338.9kbits/s speed=0.0247x elapsed=0:06:03.23    \nframe=  541 fps=1.5 q=35.0 size=    2560KiB time=00:00:08.98 bitrate=2334.5kbits/s speed=0.0247x elapsed=0:06:03.79    \nframe=  541 fps=1.5 q=35.0 size=    2560KiB time=00:00:08.98 bitrate=2334.5kbits/s speed=0.0247x elapsed=0:06:04.36    \nframe=  543 fps=1.5 q=41.1 size=    2560KiB time=00:00:09.01 bitrate=2325.9kbits/s speed=0.0247x elapsed=0:06:04.90    \nframe=  543 fps=1.5 q=41.1 size=    2560KiB time=00:00:09.01 bitrate=2325.9kbits/s speed=0.0247x elapsed=0:06:05.43    \nframe=  544 fps=1.5 q=40.9 size=    2560KiB time=00:00:09.03 bitrate=2321.6kbits/s speed=0.0247x elapsed=0:06:05.99    \nframe=  544 fps=1.5 q=40.9 size=    2560KiB time=00:00:09.03 bitrate=2321.6kbits/s speed=0.0246x elapsed=0:06:06.55    \nframe=  544 fps=1.5 q=40.9 size=    2560KiB time=00:00:09.03 bitrate=2321.6kbits/s speed=0.0246x elapsed=0:06:07.09    \nframe=  545 fps=1.5 q=33.7 size=    2560KiB time=00:00:09.05 bitrate=2317.3kbits/s speed=0.0246x elapsed=0:06:07.63    \nframe=  545 fps=1.5 q=33.7 size=    2560KiB time=00:00:09.05 bitrate=2317.3kbits/s speed=0.0246x elapsed=0:06:08.20    \nframe=  545 fps=1.5 q=33.7 size=    2560KiB time=00:00:09.05 bitrate=2317.3kbits/s speed=0.0245x elapsed=0:06:08.73    \nframe=  546 fps=1.5 q=35.8 size=    2560KiB time=00:00:09.06 bitrate=2313.1kbits/s speed=0.0246x elapsed=0:06:09.26    \nframe=  547 fps=1.5 q=41.1 size=    2560KiB time=00:00:09.08 bitrate=2308.8kbits/s speed=0.0246x elapsed=0:06:09.81    \nframe=  548 fps=1.5 q=41.2 size=    2560KiB time=00:00:09.10 bitrate=2304.6kbits/s speed=0.0246x elapsed=0:06:10.36    \nframe=  548 fps=1.5 q=41.2 size=    2560KiB time=00:00:09.10 bitrate=2304.6kbits/s speed=0.0245x elapsed=0:06:10.93    \nframe=  549 fps=1.5 q=41.1 size=    2560KiB time=00:00:09.11 bitrate=2300.4kbits/s speed=0.0245x elapsed=0:06:11.45    \nframe=  550 fps=1.5 q=34.1 size=    2560KiB time=00:00:09.13 bitrate=2296.2kbits/s speed=0.0246x elapsed=0:06:11.99    \nframe=  551 fps=1.5 q=40.0 size=    2816KiB time=00:00:09.15 bitrate=2521.2kbits/s speed=0.0246x elapsed=0:06:12.54    \nframe=  552 fps=1.5 q=41.1 size=    2816KiB time=00:00:09.16 bitrate=2516.6kbits/s speed=0.0246x elapsed=0:06:13.10    \nframe=  553 fps=1.5 q=41.0 size=    2816KiB time=00:00:09.18 bitrate=2512.1kbits/s speed=0.0246x elapsed=0:06:13.64    \nframe=  555 fps=1.5 q=33.9 size=    2816KiB time=00:00:09.21 bitrate=2503.0kbits/s speed=0.0246x elapsed=0:06:14.15    \nframe=  556 fps=1.5 q=40.2 size=    2816KiB time=00:00:09.23 bitrate=2498.5kbits/s speed=0.0246x elapsed=0:06:14.73    \nframe=  556 fps=1.5 q=40.2 size=    2816KiB time=00:00:09.23 bitrate=2498.5kbits/s speed=0.0246x elapsed=0:06:15.27    \nframe=  557 fps=1.5 q=41.1 size=    2816KiB time=00:00:09.25 bitrate=2493.9kbits/s speed=0.0246x elapsed=0:06:15.82    \nframe=  558 fps=1.5 q=41.1 size=    2816KiB time=00:00:09.26 bitrate=2489.5kbits/s speed=0.0246x elapsed=0:06:16.40    \nframe=  559 fps=1.5 q=41.1 size=    2816KiB time=00:00:09.28 bitrate=2485.0kbits/s speed=0.0246x elapsed=0:06:16.93    \nframe=  559 fps=1.5 q=41.1 size=    2816KiB time=00:00:09.28 bitrate=2485.0kbits/s speed=0.0246x elapsed=0:06:17.47    \nframe=  560 fps=1.5 q=33.8 size=    2816KiB time=00:00:09.30 bitrate=2480.5kbits/s speed=0.0246x elapsed=0:06:17.98    \nframe=  561 fps=1.5 q=40.1 size=    2816KiB time=00:00:09.31 bitrate=2476.1kbits/s speed=0.0246x elapsed=0:06:18.52    \nframe=  562 fps=1.5 q=41.0 size=    2816KiB time=00:00:09.33 bitrate=2471.7kbits/s speed=0.0246x elapsed=0:06:19.04    \nframe=  562 fps=1.5 q=41.0 size=    2816KiB time=00:00:09.33 bitrate=2471.7kbits/s speed=0.0246x elapsed=0:06:19.56    \nframe=  563 fps=1.5 q=41.1 size=    2816KiB time=00:00:09.35 bitrate=2467.3kbits/s speed=0.0246x elapsed=0:06:20.12    \nframe=  564 fps=1.5 q=41.0 size=    2816KiB time=00:00:09.36 bitrate=2462.9kbits/s speed=0.0246x elapsed=0:06:20.64    \nframe=  567 fps=1.5 q=41.0 size=    2816KiB time=00:00:09.41 bitrate=2449.8kbits/s speed=0.0247x elapsed=0:06:21.15    \nframe=  567 fps=1.5 q=41.0 size=    2816KiB time=00:00:09.41 bitrate=2449.8kbits/s speed=0.0247x elapsed=0:06:21.67    \nframe=  567 fps=1.5 q=41.0 size=    2816KiB time=00:00:09.41 bitrate=2449.8kbits/s speed=0.0246x elapsed=0:06:22.20    \nframe=  569 fps=1.5 q=41.0 size=    2816KiB time=00:00:09.45 bitrate=2441.2kbits/s speed=0.0247x elapsed=0:06:22.72    \nframe=  570 fps=1.5 q=33.7 size=    2816KiB time=00:00:09.46 bitrate=2436.9kbits/s speed=0.0247x elapsed=0:06:23.25    \nframe=  572 fps=1.5 q=40.9 size=    2816KiB time=00:00:09.50 bitrate=2428.3kbits/s speed=0.0248x elapsed=0:06:23.79    \nframe=  573 fps=1.5 q=41.1 size=    2816KiB time=00:00:09.51 bitrate=2424.1kbits/s speed=0.0248x elapsed=0:06:24.33    \nframe=  574 fps=1.5 q=41.0 size=    2816KiB time=00:00:09.53 bitrate=2419.8kbits/s speed=0.0248x elapsed=0:06:24.86    \nframe=  576 fps=1.5 q=39.9 size=    2816KiB time=00:00:09.56 bitrate=2411.4kbits/s speed=0.0248x elapsed=0:06:25.42    \nframe=  576 fps=1.5 q=39.9 size=    2816KiB time=00:00:09.56 bitrate=2411.4kbits/s speed=0.0248x elapsed=0:06:26.01    \nframe=  576 fps=1.5 q=39.9 size=    2816KiB time=00:00:09.56 bitrate=2411.4kbits/s speed=0.0247x elapsed=0:06:26.55    \nframe=  576 fps=1.5 q=39.9 size=    2816KiB time=00:00:09.56 bitrate=2411.4kbits/s speed=0.0247x elapsed=0:06:27.11    \nframe=  578 fps=1.5 q=41.2 size=    2816KiB time=00:00:09.60 bitrate=2403.0kbits/s speed=0.0248x elapsed=0:06:27.68    \nframe=  579 fps=1.5 q=41.1 size=    2816KiB time=00:00:09.61 bitrate=2398.9kbits/s speed=0.0248x elapsed=0:06:28.23    \nframe=  580 fps=1.5 q=33.8 size=    2816KiB time=00:00:09.63 bitrate=2394.7kbits/s speed=0.0248x elapsed=0:06:28.76    \nframe=  580 fps=1.5 q=33.8 size=    2816KiB time=00:00:09.63 bitrate=2394.7kbits/s speed=0.0247x elapsed=0:06:29.30    \nframe=  580 fps=1.5 q=33.8 size=    2816KiB time=00:00:09.63 bitrate=2394.7kbits/s speed=0.0247x elapsed=0:06:29.81    \nframe=  583 fps=1.5 q=40.9 size=    2816KiB time=00:00:09.68 bitrate=2382.3kbits/s speed=0.0248x elapsed=0:06:30.33    \nframe=  583 fps=1.5 q=40.9 size=    2816KiB time=00:00:09.68 bitrate=2382.3kbits/s speed=0.0248x elapsed=0:06:30.87    \nframe=  584 fps=1.5 q=41.0 size=    2816KiB time=00:00:09.70 bitrate=2378.2kbits/s speed=0.0248x elapsed=0:06:31.48    \nframe=  584 fps=1.5 q=41.0 size=    2816KiB time=00:00:09.70 bitrate=2378.2kbits/s speed=0.0247x elapsed=0:06:32.02    \nframe=  586 fps=1.5 q=38.9 size=    2816KiB time=00:00:09.73 bitrate=2370.1kbits/s speed=0.0248x elapsed=0:06:32.54    \nframe=  586 fps=1.5 q=38.9 size=    2816KiB time=00:00:09.73 bitrate=2370.1kbits/s speed=0.0248x elapsed=0:06:33.11    \nframe=  586 fps=1.5 q=38.9 size=    2816KiB time=00:00:09.73 bitrate=2370.1kbits/s speed=0.0247x elapsed=0:06:33.66    \nframe=  587 fps=1.5 q=41.1 size=    2816KiB time=00:00:09.75 bitrate=2366.1kbits/s speed=0.0247x elapsed=0:06:34.18    \nframe=  588 fps=1.5 q=41.0 size=    2816KiB time=00:00:09.76 bitrate=2362.0kbits/s speed=0.0247x elapsed=0:06:34.70    \nframe=  590 fps=1.5 q=38.5 size=    2816KiB time=00:00:09.80 bitrate=2354.0kbits/s speed=0.0248x elapsed=0:06:35.22    \nframe=  590 fps=1.5 q=38.5 size=    2816KiB time=00:00:09.80 bitrate=2354.0kbits/s speed=0.0248x elapsed=0:06:35.74    \nframe=  590 fps=1.5 q=38.5 size=    2816KiB time=00:00:09.80 bitrate=2354.0kbits/s speed=0.0247x elapsed=0:06:36.26    \nframe=  591 fps=1.5 q=40.1 size=    2816KiB time=00:00:09.81 bitrate=2350.0kbits/s speed=0.0247x elapsed=0:06:36.80    \nframe=  591 fps=1.5 q=40.1 size=    2816KiB time=00:00:09.81 bitrate=2350.0kbits/s speed=0.0247x elapsed=0:06:37.36    \nframe=  592 fps=1.5 q=39.0 size=    2816KiB time=00:00:09.83 bitrate=2346.0kbits/s speed=0.0247x elapsed=0:06:37.88    \nframe=  592 fps=1.5 q=39.0 size=    2816KiB time=00:00:09.83 bitrate=2346.0kbits/s speed=0.0247x elapsed=0:06:38.40    \nframe=  592 fps=1.5 q=39.0 size=    2816KiB time=00:00:09.83 bitrate=2346.0kbits/s speed=0.0246x elapsed=0:06:38.92    \nframe=  594 fps=1.5 q=36.9 size=    2816KiB time=00:00:09.86 bitrate=2338.1kbits/s speed=0.0247x elapsed=0:06:39.44    \nframe=  595 fps=1.5 q=37.1 size=    2816KiB time=00:00:09.88 bitrate=2334.1kbits/s speed=0.0247x elapsed=0:06:39.96    \nframe=  595 fps=1.5 q=37.1 size=    2816KiB time=00:00:09.88 bitrate=2334.1kbits/s speed=0.0247x elapsed=0:06:40.53    \nframe=  596 fps=1.5 q=37.0 size=    2816KiB time=00:00:09.90 bitrate=2330.2kbits/s speed=0.0247x elapsed=0:06:41.08    \nframe=  596 fps=1.5 q=37.0 size=    2816KiB time=00:00:09.90 bitrate=2330.2kbits/s speed=0.0246x elapsed=0:06:41.63    \nframe=  598 fps=1.5 q=34.5 size=    2816KiB time=00:00:09.93 bitrate=2322.4kbits/s speed=0.0247x elapsed=0:06:42.17    \nframe=  598 fps=1.5 q=34.5 size=    2816KiB time=00:00:09.93 bitrate=2322.4kbits/s speed=0.0247x elapsed=0:06:42.72    \nframe=  598 fps=1.5 q=34.5 size=    2816KiB time=00:00:09.93 bitrate=2322.4kbits/s speed=0.0246x elapsed=0:06:43.23    \n[mp4 @ 000002e2853fb780] Starting second pass: moving the moov atom to the beginning of the file\n[out#0/mp4 @ 000002e2853fb680] video:3022KiB audio:0KiB subtitle:0KiB other streams:0KiB global headers:2KiB muxing overhead: 0.337995%\nframe=  600 fps=1.5 q=36.7 Lsize=    3032KiB time=00:00:09.96 bitrate=2492.0kbits/s speed=0.0247x elapsed=0:06:43.33    \nx265 [info]: frame I:      3, Avg QP:35.88  kb/s: 31747.84\nx265 [info]: frame P:    127, Avg QP:34.11  kb/s: 8242.98 \nx265 [info]: frame B:    470, Avg QP:39.76  kb/s: 727.51  \nx265 [info]: Weighted P-Frames: Y:10.2% UV:8.7%\n\nencoded 600 frames in 403.12s (1.49 fps), 2473.38 kb/s, Avg QP:38.55\n",
  "seconds": 403.6720199584961,
  "probe_out": {}
}